<?xml version="1.0" encoding="utf-8"?>
<!-- Generator: Adobe Illustrator 16.0.0, SVG Export Plug-In . SVG Version: 6.00 Build 0)  -->
<!DOCTYPE svg PUBLIC "-//W3C//DTD SVG 1.1//EN" "http://www.w3.org/Graphics/SVG/1.1/DTD/svg11.dtd">
<svg version="1.1" id="Layer_1" xmlns="http://www.w3.org/2000/svg" xmlns:xlink="http://www.w3.org/1999/xlink" x="0px" y="0px"
         width="3348.477px" height="3000px" viewBox="0 0 3348.477 3000" enable-background="new 0 0 3348.477 3000" xml:space="preserve">
<g>
        <g>
                <path fill="#383838" d="M450,200h308V0H449.999C364.703,0,281.65,24,209.82,69.403l106.86,169.059
                        C356.487,213.3,402.589,200,450,200z"/>
                <path fill="#383838" d="M200,450c0-36.534,7.671-71.695,22.799-104.509L41.173,261.754C13.852,321.012,0,384.347,0,450v354h200
                        V450z"/>
                <rect y="1006" fill="#383838" width="200" height="504"/>
                <path fill="#383838" d="M2693.184,244.82c60.299-38.185,120.381-74.26,179.885-108.002
                        c-34.01-35.025-73.675-64.589-116.941-86.915C2692.858,17.256,2621.58,0,2550,0h-177v200h177
                        C2602.391,200,2651.865,215.829,2693.184,244.82z"/>
                <rect y="1712" fill="#383838" width="200" height="505"/>
                <rect x="960" fill="#383838" width="504" height="200"/>
                <rect x="1666" fill="#383838" width="505" height="200"/>
                <rect x="1889" y="2800" fill="#383838" width="504" height="200"/>
                <rect x="2800" y="1136" fill="#383838" width="200" height="505"/>
                <rect x="2800" y="1843" fill="#383838" width="200" height="504"/>
                <path fill="#383838" d="M200,2550v-131H0v131c0,163.793,89.126,314.793,232.597,394.074l96.732-175.051
                        C249.556,2724.94,200,2641.017,200,2550z"/>
                <path fill="#383838" d="M2800,801.374V934h200V636.97C2934.257,685.917,2867.53,740.777,2800,801.374z"/>
                <path fill="#383838" d="M2800,2550c0,125.372-93.562,231.961-217.635,247.936l25.539,198.363
                        c107.655-13.861,206.741-66.413,279.005-147.977C2959.837,2766.009,3000,2660.062,3000,2550v-1h-200V2550z"/>
                <rect x="475" y="2800" fill="#383838" width="505" height="200"/>
                <rect x="1182" y="2800" fill="#383838" width="505" height="200"/>
        </g>
        <path fill="#AF2F2F" d="M458,1592.333l938.096,938.095c0,0,938.096-1804.761,1952.381-2209.523L3310.381,35.19
                C2758,254.238,1919.904,830.428,1300.857,1711.381l-652.382-385.714L458,1592.333z"/>
</g>
<g>
</g>
<g>
</g>
<g>
</g>
<g>
</g>
<g>
</g>
<g>
</g>
<g>
</g>
<g>
</g>
<g>
</g>
<g>
</g>
<g>
</g>
<g>
</g>
<g>
</g>
<g>
</g>
<g>
</g>
<g>
</g>
<g>
</g>
<g>
</g>
</svg>
