<svg xmlns="http://www.w3.org/2000/svg" width="3348.477" height="3000" viewBox="0 0 3348.477 3000"><path d="M450 200h308V0H450c-85.297 0-168.35 24-240.18 69.403l106.86 169.06C356.487 213.3 402.59 200 450 200zM200 450c0-36.534 7.67-71.695 22.8-104.51L41.172 261.755C13.852 321.012 0 384.347 0 450v354h200V450zM0 1006h200v504H0zm2693.184-761.18c60.3-38.185 120.38-74.26 179.885-108.002-34.01-35.025-73.68-64.59-116.95-86.915C2692.85 17.256 2621.58 0 2550 0h-177v200h177c52.39 0 101.865 15.83 143.184 44.82zM0 1712h200v505H0zM960 0h504v200H960zm706 0h505v200h-505zm223 2800h504v200h-504zm911-1664h200v505h-200zm0 707h200v504h-200zM200 2550v-131H0v131c0 163.793 89.126 314.793 232.597 394.074l96.732-175.05C249.55 2724.94 200 2641.016 200 2550zM2800 801.374V934h200V636.97c-65.743 48.947-132.47 103.807-200 164.404zM2800 2550c0 125.372-93.562 231.96-217.635 247.936l25.54 198.363c107.654-13.87 206.74-66.42 279.004-147.98C2959.83 2766.01 3000 2660.06 3000 2550v-1h-200v1zM475 2800h505v200H475zm707 0h505v200h-505z" fill="#383838"/><path fill="#AF2F2F" d="M458 1592.333l938.096 938.095s938.096-1804.76 1952.38-2209.523L3310.382 35.19C2758 254.238 1919.905 830.428 1300.858 1711.38l-652.382-385.713L458 1592.333z"/></svg>