<svg xmlns="http://www.w3.org/2000/svg" width="3348.477" height="3000" viewBox="0 0 3348.477 3000"><g fill="#383838"><path d="M450 200h308v-200h-308.001c-85.296 0-168.349 24-240.179 69.403l106.86 169.059c39.807-25.162 85.909-38.462 133.32-38.462zM200 450c0-36.534 7.671-71.695 22.799-104.509l-181.626-83.737c-27.321 59.258-41.173 122.593-41.173 188.246v354h200v-354zM0 1006h200v504h-200zM2693.184 244.82c60.299-38.185 120.381-74.26 179.885-108.002-34.01-35.025-73.675-64.589-116.941-86.915-63.27-32.647-134.548-49.903-206.128-49.903h-177v200h177c52.391 0 101.865 15.829 143.184 44.82zM0 1712h200v505h-200zM960 0h504v200h-504zM1666 0h505v200h-505zM1889 2800h504v200h-504zM2800 1136h200v505h-200zM2800 1843h200v504h-200zM200 2550v-131h-200v131c0 163.793 89.126 314.793 232.597 394.074l96.732-175.051c-79.773-44.083-129.329-128.006-129.329-219.023zM2800 801.374v132.626h200v-297.03c-65.743 48.947-132.47 103.807-200 164.404zM2800 2550c0 125.372-93.562 231.961-217.635 247.936l25.539 198.363c107.655-13.861 206.741-66.413 279.005-147.977 72.928-82.313 113.091-188.26 113.091-298.322v-1h-200v1zM475 2800h505v200h-505zM1182 2800h505v200h-505z"/></g><path fill="#AF2F2F" d="M458 1592.333l938.096 938.095s938.096-1804.761 1952.381-2209.523l-38.096-285.715c-552.381 219.048-1390.477 795.238-2009.524 1676.191l-652.382-385.714-190.475 266.666z"/></svg>