<svg xmlns="http://www.w3.org/2000/svg" width="500" height="85.529"><g fill="#2D2D2D"><path d="M115.936 74.479v-6.708l8.744-.594c1.188-.086 1.358-.425 1.358-1.698v-43.213h-8.743c-.935 0-1.189.083-1.359.933l-1.358 7.388h-9.339v-17.577h54.677v17.576h-9.255l-1.357-7.388c-.17-.85-.425-.933-1.358-.933h-8.746v43.214c0 1.188.085 1.527 1.359 1.612l9.34.68v6.708h-33.963zM151.076 75.659h-36.319v-8.989l9.843-.669.244-.026.015-.495v-42.036h-7.563l-.188.003-1.549 8.317h-11.499v-19.933h57.034v19.934h-11.417l-1.528-8.317-.204-.003h-7.566v42.035l.006.413.252.022 10.44.76v8.984zm-33.961-2.359h31.603v-4.433l-8.246-.599c-2.264-.151-2.453-1.46-2.453-2.789v-44.393h9.926c1.082 0 2.168.146 2.516 1.88l1.184 6.44h7.092v-15.217h-52.317v15.217h7.178l1.179-6.422c.354-1.753 1.438-1.898 2.521-1.898h9.924v44.394c0 1.307-.189 2.711-2.454 2.876l-7.649.517v4.427z"/></g><g fill="#2D2D2D"><path d="M158.563 52.659c0-14.095 7.385-23.263 22.923-23.263 15.705 0 21.817 9.338 21.817 22.33 0 14.433-7.302 23.77-22.923 23.77-15.533 0-21.817-9.508-21.817-22.837zm31.329-.509c0-10.021-3.057-13.586-8.574-13.586-5.604 0-9.34 3.482-9.34 13.67 0 10.273 3.311 14.35 8.997 14.35 5.52 0 8.917-3.82 8.917-14.434zM180.381 76.677c-14.829 0-22.997-8.53-22.997-24.018 0-15.532 8.785-24.441 24.103-24.441 14.829 0 22.998 8.35 22.998 23.509-.001 16.089-8.561 24.95-24.104 24.95zm1.105-46.101c-14.021 0-21.744 7.843-21.744 22.083 0 9.882 3.579 21.659 20.639 21.659 17.972 0 21.745-12.287 21.745-22.592 0-9.649-3.58-21.15-20.64-21.15zm-.511 37.187c-6.753 0-10.177-5.224-10.177-15.528 0-9.854 3.54-14.849 10.52-14.849 8.742 0 9.754 8.425 9.754 14.765-.001 10.505-3.304 15.612-10.097 15.612zm.342-28.019c-3.505 0-8.16 1.294-8.16 12.49 0 11.803 4.463 13.17 7.817 13.17 3.322 0 7.738-1.373 7.738-13.254.001-10.932-3.737-12.406-7.395-12.406z"/></g><g fill="#2D2D2D"><path d="M240.416 74.479l-.852-4.754-.594-.087c-3.565 3.482-7.726 5.857-13.922 5.857-10.019 0-16.475-6.364-16.475-22.582 0-17.065 8.578-23.518 18.003-23.518 4.922 0 8.745 1.697 11.97 4.075v-12.905c0-.848-.34-1.441-1.104-1.697l-4.668-1.612.933-6.878h17.066v55.187c0 1.271.081 1.442 1.357 1.613l4.072.594v6.708h-15.786zm-2.378-32.687c-2.122-1.445-4.84-2.546-7.303-2.546-6.281 0-8.745 5.855-8.745 13.413 0 8.233 2.376 12.82 7.725 12.82 2.89 0 6.031-1.697 8.323-3.65v-20.037zM225.049 76.677c-11.714 0-17.653-7.995-17.653-23.763 0-15.464 7.17-24.696 19.182-24.696 3.869 0 7.419.997 10.79 3.042v-10.695c0-.479-.139-.524-.3-.58l-5.591-1.931 1.201-8.856h19.275v56.366l.004.395.333.05 5.095.742v8.908h-17.957l-.741-4.147c-4.051 3.562-8.315 5.165-13.638 5.165zm1.528-46.101c-10.69 0-16.823 8.143-16.823 22.338 0 14.403 5.003 21.404 15.295 21.404 5.146 0 9.187-1.702 13.098-5.522l.417-.406 2.014.289.827 4.621h13.622v-4.507l-3.064-.448c-2.011-.269-2.367-1.11-2.367-2.78v-54.008h-14.858l-.662 4.899 3.753 1.297c1.203.403 1.898 1.431 1.898 2.812v15.239l-1.878-1.384c-3.562-2.623-7.141-3.844-11.272-3.844zm3.138 36.083c-5.906 0-8.905-4.711-8.905-14 0-9.274 3.62-14.593 9.926-14.593 2.495 0 5.399 1.003 7.967 2.751l.516.35v21.206l-.415.354c-1.388 1.182-5.05 3.932-9.089 3.932zm1.02-26.233c-6.582 0-7.565 7.666-7.565 12.233 0 11.642 4.928 11.642 6.545 11.642 2.131 0 4.771-1.124 7.145-3.027v-18.844c-2.029-1.263-4.278-2.004-6.125-2.004z"/></g><g fill="#2D2D2D"><path d="M259.098 52.659c0-14.095 7.388-23.263 22.925-23.263 15.707 0 21.821 9.338 21.821 22.33 0 14.433-7.303 23.77-22.926 23.77-15.536 0-21.82-9.508-21.82-22.837zm31.331-.509c0-10.021-3.059-13.586-8.578-13.586-5.602 0-9.336 3.482-9.336 13.67 0 10.273 3.31 14.35 8.997 14.35 5.519 0 8.917-3.82 8.917-14.434zM280.918 76.677c-14.832 0-22.999-8.53-22.999-24.018 0-15.532 8.786-24.441 24.104-24.441 14.831 0 22.999 8.35 22.999 23.509-.001 16.089-8.56 24.95-24.104 24.95zm1.104-46.101c-14.022 0-21.746 7.843-21.746 22.083 0 9.882 3.583 21.659 20.642 21.659 17.971 0 21.745-12.287 21.745-22.592 0-9.649-3.581-21.15-20.641-21.15zm-.51 37.187c-6.754 0-10.178-5.224-10.178-15.528 0-9.854 3.538-14.849 10.517-14.849 8.747 0 9.758 8.425 9.758 14.765-.001 10.505-3.303 15.612-10.097 15.612zm.339-28.019c-3.503 0-8.159 1.294-8.159 12.49 0 11.803 4.466 13.17 7.82 13.17 3.322 0 7.739-1.373 7.739-13.254 0-10.932-3.741-12.406-7.4-12.406z"/></g><g fill="#AF2F2F"><path d="M354.554 74.479v-6.623l6.963-.594c1.188-.171 1.358-.51 1.358-1.698v-32.262h-.339l-12.141 28.951h-13.843l-11.968-29.036h-.427v32.263c0 1.356.086 1.527 1.358 1.698l7.303.679v6.623h-25.81v-6.623l5.347-.594c1.191-.171 1.359-.427 1.359-1.698v-43.555c0-1.274-.168-1.527-1.359-1.697l-5.347-.595v-6.708h22.753l14.774 38.461h.339l15.536-38.461h22.076v6.623l-5.69.68c-1.272.17-1.358.338-1.358 1.611v43.641c0 1.104.254 1.442 1.358 1.613l5.69.679v6.623h-27.932zM383.668 75.659h-30.292v-8.885l8.04-.688.289-.06c-.019-.047-.011-.198-.011-.463v-27.21l-10.517 25.077h-15.414l-10.426-25.294v27.342l.008.479.328.05 8.325.771v8.879h-28.168v-8.857l6.396-.712.295-.053.017-.473v-43.552l-.017-.473-.332-.057-6.359-.707v-8.942h24.742l14.159 36.853 14.886-36.853h24.051v8.848l-6.729.804-.316.048-.004.394v43.641l.021.395.339.054 6.688.799v8.845zm-27.935-2.359h25.575v-4.396l-4.65-.556c-1.691-.261-2.397-1.093-2.397-2.784v-43.64c0-1.667.356-2.51 2.381-2.779l4.667-.558v-4.397h-20.103l-15.536 38.46h-1.944l-14.773-38.461h-20.764v4.473l4.301.478c2.021.29 2.406 1.271 2.406 2.87v43.555c0 1.599-.386 2.58-2.368 2.866l-4.339.481v4.388h23.452v-4.367l-6.231-.581c-2.088-.278-2.43-1.11-2.43-2.872v-33.443h2.395l11.968 29.037h12.269l12.144-28.953h2.3v33.443c0 1.56-.396 2.582-2.367 2.866l-5.953.508v4.362z"/></g><g fill="#AF2F2F"><path d="M411.176 74.479l-17.066-52.469c-.34-1.021-1.017-1.189-2.038-1.444l-3.821-.933.85-6.623h25.728v6.623l-6.879.763 12.733 42.451h.682l12.311-42.451-6.79-.763.848-6.623h21.988v6.623l-3.566.933c-1.019.255-1.865.595-2.12 1.612l-15.537 52.302h-17.323zM429.377 75.659h-19.059l-17.329-53.285c-.116-.342-.131-.396-1.198-.663l-4.845-1.182 1.118-8.698h27.943v8.856l-6.521.724 11.523 38.423 11.142-38.423-6.589-.74 1.129-8.84h24.208v8.711l-4.445 1.164c-1.077.271-1.21.485-1.275.76l-15.802 53.193zm-17.345-2.359h15.584l15.286-51.458c.45-1.788 2.148-2.217 2.965-2.421l2.675-.698v-4.533h-19.771l-.565 4.403 6.991.786-12.945 44.647h-2.446l-13.392-44.647 7.235-.801v-4.389h-23.513l-.582 4.547 2.797.685c1.102.273 2.334.582 2.879 2.216l16.802 51.663z"/></g><g fill="#AF2F2F"><path d="M498.821 70.829c-5.011 3.057-13.502 4.667-21.228 4.667-21.141 0-29.801-12.308-29.801-32.007 0-18.083 10.442-31.585 31.583-31.585 7.047 0 14.603 1.783 19.273 4.842v16.64l-9.338-.764-1.358-8.32c-.171-.848-.512-1.273-1.36-1.53-1.867-.594-4.753-1.018-7.554-1.018-10.785 0-17.664 7.302-17.664 21.735 0 15.027 6.54 22.329 17.069 22.329 2.802 0 6.281-.425 8.489-1.103 1.02-.256 1.273-.51 1.528-1.783l1.273-7.896h9.086v15.793zM477.594 76.677c-20.558 0-30.979-11.167-30.979-33.188 0-20.21 12.553-32.765 32.762-32.765 7.545 0 15.179 1.929 19.919 5.036l.533.348v18.559l-11.532-.945-1.507-9.229c-.088-.427-.15-.475-.537-.593-1.854-.589-4.68-.967-7.213-.967-10.629 0-16.482 7.3-16.482 20.556 0 13.836 5.492 21.149 15.888 21.149 2.783 0 6.132-.433 8.142-1.05.415-.105.502-.157.524-.171.005-.013.079-.15.194-.718l1.426-8.843h11.268v17.632l-.564.346c-4.896 2.987-13.265 4.843-21.842 4.843zm1.782-63.593c-19.037 0-30.404 11.367-30.404 30.405 0 20.457 9.63 30.829 28.622 30.829 7.718 0 15.475-1.625 20.047-4.166v-13.936h-6.901l-1.115 6.906c-.344 1.731-.905 2.359-2.401 2.737-2.188.673-5.74 1.138-8.778 1.138-11.769 0-18.247-8.35-18.247-23.508 0-14.562 6.867-22.915 18.842-22.915 2.798 0 5.829.413 7.911 1.074 1.226.368 1.896 1.116 2.158 2.421l1.22 7.451 7.143.585v-14.708c-4.368-2.632-11.375-4.313-18.097-4.313z"/></g><g fill="#2D2D2D"><path d="M12.83 5.701h8.781v-5.701h-8.781c-2.433 0-4.801.683-6.849 1.979l3.046 4.815c1.136-.715 2.448-1.093 3.803-1.093"/><path d="M5.704 12.827c0-1.042.216-2.042.646-2.979l-5.178-2.389c-.778 1.692-1.172 3.498-1.172 5.368v10.095h5.704v-10.095z"/><rect y="28.68" width="5.704" height="14.37"/><path d="M76.782 6.979c1.718-1.091 3.432-2.121 5.13-3.079-.97-1-2.104-1.842-3.336-2.478-1.803-.93-3.837-1.422-5.875-1.422h-5.048v5.701h5.048c1.494 0 2.904.449 4.081 1.278"/><rect y="48.81" width="5.704" height="14.397"/><rect x="27.369" width="14.371" height="5.701"/><rect x="47.497" width="14.396" height="5.701"/><rect x="53.855" y="79.824" width="14.367" height="5.705"/><rect x="79.827" y="32.387" width="5.701" height="14.398"/><rect x="79.827" y="52.542" width="5.701" height="14.372"/><path d="M5.704 72.699v-3.738h-5.704v3.738c0 4.668 2.54 8.976 6.631 11.236l2.758-4.99c-2.274-1.259-3.685-3.65-3.685-6.246"/><path d="M79.827 22.847v3.778h5.701v-8.467c-1.875 1.399-3.772 2.96-5.701 4.689"/><path d="M79.827 72.699c0 3.575-2.667 6.614-6.203 7.07l.726 5.655c3.07-.396 5.897-1.894 7.956-4.22 2.078-2.347 3.223-5.366 3.223-8.506v-.028h-5.701v.029z"/><rect x="13.542" y="79.824" width="14.398" height="5.705"/><rect x="33.696" y="79.824" width="14.399" height="5.705"/></g><path fill="#AF2F2F" d="M13.059 45.396l26.744 26.744s26.745-51.453 55.662-62.994l-1.084-8.144c-15.749 6.244-39.648 22.673-57.294 47.787l-18.6-10.996-5.428 7.603z"/></svg>