<svg xmlns="http://www.w3.org/2000/svg" width="500" height="85.529"><path d="M115.936 74.48v-6.71l8.744-.593c1.188-.086 1.358-.425 1.358-1.698V22.26h-8.743c-.935 0-1.19.083-1.36.933l-1.357 7.387h-9.34V13.01h54.678v17.576h-9.255l-1.35-7.388c-.17-.85-.42-.933-1.36-.933h-8.75V65.48c0 1.187.09 1.526 1.36 1.61l9.34.68v6.71h-33.96zm35.14 1.18h-36.32v-8.99L124.6 66l.244-.025.015-.495V23.444h-7.57l-.19.003-1.55 8.317h-11.49V11.83h57.03v19.935h-11.42l-1.53-8.317-.21-.003h-7.57v42.448l.25.022 10.44.76v8.984zm-33.96-2.36h31.602v-4.433l-8.246-.6c-2.264-.15-2.453-1.46-2.453-2.788v-44.4h9.92c1.08 0 2.17.14 2.51 1.88l1.18 6.44h7.09V14.19h-52.31v15.216h7.17l1.18-6.422c.35-1.753 1.43-1.898 2.52-1.898h9.92V65.48c0 1.307-.19 2.71-2.46 2.876l-7.65.517V73.3zm41.447-20.64c0-14.096 7.385-23.264 22.923-23.264 15.705 0 21.817 9.338 21.817 22.33 0 14.433-7.302 23.77-22.923 23.77-15.533 0-21.817-9.508-21.817-22.837zm31.33-.51c0-10.02-3.058-13.586-8.575-13.586-5.604 0-9.34 3.482-9.34 13.67 0 10.273 3.31 14.35 8.997 14.35 5.52 0 8.917-3.82 8.917-14.434zm-9.512 24.527c-14.82 0-22.99-8.53-22.99-24.018 0-15.54 8.79-24.45 24.11-24.45 14.83 0 23 8.35 23 23.51 0 16.09-8.56 24.95-24.1 24.95zm1.11-46.1c-14.02 0-21.74 7.842-21.74 22.082 0 9.88 3.58 21.65 20.64 21.65 17.97 0 21.75-12.29 21.75-22.59 0-9.65-3.58-21.15-20.64-21.15zm-.51 37.186c-6.75 0-10.18-5.224-10.18-15.528 0-9.854 3.54-14.85 10.52-14.85 8.74 0 9.76 8.426 9.76 14.766 0 10.51-3.3 15.62-10.09 15.62zm.34-28.02c-3.5 0-8.16 1.295-8.16 12.49 0 11.804 4.47 13.17 7.82 13.17 3.32 0 7.74-1.372 7.74-13.253 0-10.932-3.73-12.406-7.39-12.406zm59.1 34.736l-.85-4.76-.59-.09c-3.56 3.48-7.72 5.85-13.92 5.85-10.02 0-16.47-6.37-16.47-22.58 0-17.07 8.58-23.52 18.01-23.52 4.92 0 8.75 1.7 11.97 4.07v-12.9c0-.85-.34-1.44-1.1-1.7l-4.67-1.61.94-6.88h17.06v55.19c0 1.27.08 1.44 1.36 1.61l4.08.59v6.71h-15.79zm-2.38-32.69c-2.12-1.45-4.84-2.55-7.3-2.55-6.28 0-8.74 5.85-8.74 13.41 0 8.23 2.38 12.82 7.73 12.82 2.89 0 6.03-1.7 8.33-3.65V41.79zm-12.99 34.88c-11.71 0-17.65-8-17.65-23.77 0-15.47 7.17-24.7 19.18-24.7 3.87 0 7.42.99 10.79 3.04V20.56c0-.48-.14-.523-.3-.58l-5.59-1.93 1.2-8.856h19.28V65.56l.01.395.33.05 5.1.74v8.91h-17.96l-.74-4.15c-4.05 3.563-8.32 5.166-13.64 5.166zm1.53-46.1c-10.69 0-16.82 8.14-16.82 22.33 0 14.4 5.01 21.4 15.3 21.4 5.15 0 9.19-1.7 13.1-5.52l.42-.41 2.02.29.83 4.62h13.62v-4.5l-3.06-.45c-2.01-.27-2.36-1.11-2.36-2.78v-54h-14.86l-.66 4.9 3.75 1.29c1.2.4 1.9 1.43 1.9 2.81V35.8l-1.88-1.385c-3.56-2.623-7.14-3.844-11.27-3.844zm3.14 36.08c-5.9 0-8.9-4.71-8.9-14 0-9.28 3.62-14.6 9.93-14.6 2.5 0 5.4 1 7.97 2.75l.52.35v21.21l-.41.35c-1.39 1.18-5.05 3.93-9.09 3.93zm1.02-26.24c-6.58 0-7.56 7.66-7.56 12.23 0 11.64 4.93 11.64 6.55 11.64 2.13 0 4.77-1.13 7.15-3.03V42.43c-2.03-1.263-4.27-2.004-6.12-2.004zm28.36 12.24c0-14.1 7.39-23.27 22.93-23.27 15.71 0 21.82 9.34 21.82 22.33 0 14.43-7.3 23.77-22.92 23.77-15.54 0-21.82-9.51-21.82-22.84zm31.33-.51c0-10.02-3.06-13.59-8.57-13.59-5.6 0-9.33 3.48-9.33 13.67 0 10.27 3.31 14.35 9 14.35 5.52 0 8.92-3.82 8.92-14.43zm-9.51 24.52c-14.83 0-23-8.53-23-24.02 0-15.54 8.79-24.45 24.11-24.45 14.83 0 23 8.35 23 23.51 0 16.09-8.56 24.95-24.1 24.95zm1.11-46.1c-14.02 0-21.74 7.84-21.74 22.08 0 9.88 3.59 21.65 20.64 21.65 17.97 0 21.74-12.29 21.74-22.59 0-9.65-3.58-21.15-20.64-21.15zm-.51 37.18c-6.75 0-10.18-5.23-10.18-15.53 0-9.86 3.54-14.85 10.52-14.85 8.75 0 9.76 8.42 9.76 14.76 0 10.5-3.3 15.61-10.1 15.61zm.34-28.02c-3.5 0-8.16 1.29-8.16 12.49 0 11.8 4.47 13.17 7.82 13.17 3.32 0 7.74-1.37 7.74-13.26 0-10.93-3.74-12.41-7.4-12.41z" fill="#2D2D2D"/><path d="M354.554 74.48v-6.624l6.963-.594c1.188-.17 1.358-.51 1.358-1.698V33.302h-.34l-12.14 28.95h-13.843l-11.968-29.035h-.427V65.48c0 1.356.086 1.527 1.358 1.698l7.303.68v6.622h-25.81v-6.623l5.347-.594c1.19-.17 1.36-.427 1.36-1.698V22.01c0-1.274-.17-1.527-1.36-1.697l-5.347-.595V13.01h22.753l14.78 38.46h.34l15.54-38.46h22.08v6.623l-5.69.68c-1.27.17-1.36.338-1.36 1.61v43.642c0 1.104.26 1.442 1.36 1.613l5.69.68v6.622h-27.94zm29.114 1.18h-30.292v-8.886l8.04-.688.29-.06c-.02-.047-.012-.198-.012-.463v-27.21L351.177 63.43h-15.414l-10.426-25.294v27.342l.008.48.328.05 8.325.77v8.88H305.83V66.8l6.396-.712.295-.053.02-.473V22.01l-.01-.473-.33-.057-6.36-.707V11.83h24.74l14.16 36.854 14.88-36.854h24.05v8.85l-6.73.804-.31.048v44.035l.02.396.34.055 6.69.8v8.844zm-27.935-2.36h25.575v-4.396l-4.65-.556c-1.69-.26-2.397-1.093-2.397-2.784v-43.64c0-1.667.36-2.51 2.39-2.78l4.67-.557V14.19h-20.11l-15.54 38.46h-1.94l-14.77-38.46h-20.77v4.472l4.3.478c2.02.29 2.41 1.27 2.41 2.87v43.555c0 1.6-.38 2.58-2.37 2.866l-4.34.49v4.38h23.46v-4.36l-6.23-.58c-2.08-.28-2.43-1.11-2.43-2.87V32.04h2.4l11.97 29.037h12.27l12.14-28.954h2.3v33.45c0 1.56-.39 2.585-2.36 2.87l-5.95.51v4.36zm55.443 1.18L394.11 22.01c-.34-1.02-1.017-1.19-2.038-1.444l-3.82-.933.85-6.623h25.727v6.623l-6.88.763 12.73 42.45h.68l12.31-42.45-6.79-.763.85-6.623h21.98v6.623l-3.57.933c-1.02.255-1.87.595-2.12 1.612L428.5 74.48h-17.324zm18.2 1.18H410.32l-17.33-53.286c-.115-.342-.13-.396-1.197-.663l-4.844-1.18 1.11-8.7H416v8.86l-6.52.73L421 59.85l11.14-38.423-6.587-.74 1.13-8.84h24.21v8.71l-4.446 1.165c-1.077.27-1.21.484-1.275.76l-15.805 53.19zm-17.344-2.36h15.584l15.286-51.458c.45-1.788 2.148-2.217 2.965-2.42l2.675-.7V14.19h-19.77l-.566 4.403 6.99.786-12.944 44.64h-2.446l-13.392-44.64 7.235-.81v-4.39h-23.52l-.59 4.55 2.8.68c1.1.28 2.33.58 2.88 2.22l16.81 51.67zm86.79-2.47c-5.012 3.056-13.503 4.666-21.23 4.666-21.14 0-29.8-12.308-29.8-32.007 0-18.09 10.442-31.59 31.583-31.59 7.047 0 14.603 1.78 19.273 4.84v16.64l-9.338-.77-1.358-8.32c-.17-.85-.512-1.28-1.36-1.53-1.867-.6-4.753-1.02-7.554-1.02-10.785 0-17.664 7.3-17.664 21.73 0 15.02 6.54 22.33 17.07 22.33 2.8 0 6.28-.43 8.488-1.11 1.02-.26 1.273-.51 1.528-1.79l1.273-7.9h9.086v15.8zm-21.228 5.847c-20.558 0-30.98-11.167-30.98-33.188 0-20.21 12.554-32.77 32.763-32.77 7.545 0 15.18 1.93 19.92 5.03l.532.34v18.56l-11.54-.95-1.51-9.23c-.09-.43-.15-.48-.54-.59-1.86-.59-4.68-.97-7.22-.97-10.63 0-16.49 7.3-16.49 20.55 0 13.83 5.49 21.15 15.89 21.15 2.78 0 6.13-.44 8.14-1.05.41-.11.5-.16.52-.17 0-.02.08-.15.19-.72l1.43-8.84H500v17.63l-.564.34c-4.896 2.98-13.265 4.84-21.842 4.84zm1.782-63.593c-19.037 0-30.404 11.367-30.404 30.405 0 20.45 9.63 30.82 28.622 30.82 7.718 0 15.475-1.63 20.047-4.17V56.21h-6.9l-1.11 6.906c-.34 1.73-.9 2.36-2.4 2.737-2.19.67-5.74 1.134-8.78 1.134-11.77 0-18.24-8.35-18.24-23.508 0-14.57 6.87-22.92 18.84-22.92 2.8 0 5.83.41 7.92 1.07 1.23.37 1.9 1.11 2.16 2.42l1.22 7.45 7.15.58v-14.7c-4.37-2.64-11.37-4.32-18.09-4.32z" fill="#AF2F2F"/><g fill="#2D2D2D"><path d="M12.83 5.7h8.78V0h-8.78c-2.433 0-4.8.683-6.85 1.98l3.047 4.814C10.163 6.08 11.475 5.7 12.83 5.7m-7.126 7.127c0-1.042.216-2.042.646-2.98L1.172 7.46C.394 9.15 0 10.956 0 12.826V22.92h5.704V12.828zM0 28.68h5.704v14.37H0zm76.782-21.7c1.718-1.092 3.432-2.122 5.13-3.08-.97-1-2.104-1.842-3.336-2.478C76.773.492 74.74 0 72.7 0h-5.047v5.7H72.7c1.495 0 2.905.45 4.082 1.28M0 48.81h5.704v14.397H0zM27.37 0h14.37v5.7H27.37zm20.127 0h14.396v5.7H47.497zm6.358 79.824h14.367v5.705H53.855zm25.972-47.437h5.7v14.398h-5.7zm0 20.155h5.7v14.372h-5.7zM5.704 72.7v-3.74H0v3.74c0 4.667 2.54 8.975 6.63 11.235l2.76-4.99c-2.275-1.26-3.686-3.65-3.686-6.246m74.123-49.86v3.77h5.7v-8.46c-1.874 1.4-3.77 2.96-5.7 4.69"/><path d="M79.827 72.7c0 3.574-2.667 6.613-6.203 7.07l.726 5.654c3.07-.396 5.897-1.894 7.956-4.22 2.078-2.347 3.223-5.366 3.223-8.506v-.028h-5.71v.03zm-66.285 7.124H27.94v5.705H13.542zm20.154 0h14.4v5.705h-14.4z"/></g><path fill="#AF2F2F" d="M13.06 45.396L39.802 72.14S66.548 20.687 95.465 9.146L94.38 1.002C78.633 7.246 54.734 23.675 37.088 48.79l-18.6-10.997-5.428 7.603z"/></svg>