<?xml version="1.0" standalone="no"?>
<!DOCTYPE svg PUBLIC "-//W3C//DTD SVG 1.1//EN" "http://www.w3.org/Graphics/SVG/1.1/DTD/svg11.dtd" >
<svg xmlns="http://www.w3.org/2000/svg">
<metadata>
This is a custom SVG webfont generated by Font Squirrel.
Copyright   : 2004  by heinrich lischka  wwwfontboutiquede
</metadata>
<defs>
<font id="webfont5wfZb0lq" horiz-adv-x="1331" >
<font-face units-per-em="2048" ascent="1638" descent="-410" />
<missing-glyph horiz-adv-x="819" />
<glyph unicode=" "  horiz-adv-x="819" />
<glyph unicode="&#x09;" horiz-adv-x="819" />
<glyph unicode="&#xa0;" horiz-adv-x="819" />
<glyph unicode="!" horiz-adv-x="626" d="M139 920q12 66 13 135q0 45 -6.5 137t-6.5 139q23 31 27 31h78q84 0 121 -14q-16 -160 -23 -400l-8 -401q-6 -14 -6 -33q0 -8 2 -25.5t2 -27.5q0 -37 -41 -47q-27 -6 -43 -6q-53 0 -78 24q-4 123 -6 244q-7 146 -25 244zM152 166q0 27 24 110q33 25 82 25q98 0 98 -90 q0 -45 -26 -92q-31 -57 -72 -58q-41 0 -80 39q-26 21 -26 66z" />
<glyph unicode="$" horiz-adv-x="1622" d="M141 362q12 20 47 49t45 50h29q213 -162 410 -195l10 13q-2 23 -2 65q0 39 7 117t7 117q0 68 -18 114q-221 18 -299 51q-152 63 -152 236q0 193 92 278q61 57 181 91q145 41 190 65q-4 53 17 96h77q68 0 68 -51v-41q6 -12 33 -20q90 -20 241 -76q20 -16 33 -23l64 -38 q37 -25 51 -54q-23 -90 -92 -116q-158 127 -248 127q-37 0 -72 -13l-16 -16q8 -111 8 -168q0 -72 -12 -150q31 -16 85 -18t75.5 -8t58.5 -21q45 -6 127 -37q76 6 119 -69q51 -92 51 -178q0 -125 -74 -246q-4 -4 -11 -15.5t-10.5 -15.5t-52.5 -37q-156 -104 -286 -104 q-53 0 -39 2q-33 -4 -37 -41q0 -23 -6 -66q-16 -8 -39 -8q-18 0 -53 10.5t-56 10.5l-8 -2q-12 14 -12 45v30q0 18 -4 27q-221 53 -285 76q-154 55 -242 157zM416 993q0 -33 35 -61q20 -16 51 -55q51 -39 116 -39q35 0 58 10q12 301 12 303v61l-12 11q-90 -8 -170 -62 q-90 -61 -90 -143v-25zM848 291l12 -12q57 10 113 22q68 12 110 33q106 49 107 186q0 80 -34 113t-112 47l-88 18q-37 -2 -108 -22v-385z" />
<glyph unicode="&#x26;" horiz-adv-x="1726" d="M125 473q0 82 121 203q14 16 43 43q23 18 80 41q74 27 90 37q-8 27 -51 116q-35 68 -35 121q0 90 65 146q33 31 140 82l90 45q41 16 102 16q147 0 330 -135q-18 -41 -49 -129q-23 0 -45 16l-41 27q-96 49 -215 49q-37 0 -80 -12q-53 -14 -66 -39l-4 -4q-59 -59 -59 -76 q0 -10 12 -31q25 -41 90 -92q78 -61 100 -88l252 -295q16 -23 41 -31q8 -4 24.5 -8t24.5 -8q59 51 80 72q45 43 66 84q59 -18 135 -62v-18l-164 -228q131 -106 168 -182q-25 -14 -91.5 -12t-94.5 -12q-29 2 -72 53q-8 12 -27.5 30.5t-33.5 18.5q-18 0 -43 -35 q-182 -98 -349 -98q-94 0 -163 31q-125 2 -230 98q-94 88 -133 215q-8 26 -8 51zM305 422q0 -61 29 -84q10 -8 43 -25q160 -80 291 -80q74 0 110 15l33 16q45 23 59 35q31 23 41 51q-86 111 -282 307q-29 4 -41 5q-123 0 -236 -134q-47 -55 -47 -106z" />
<glyph unicode="(" horiz-adv-x="737" d="M131 713q4 29 25 80q12 -6 28 -7q51 0 95 68q37 59 36 115q0 43 -28.5 127t-28.5 129q0 10 6 56t15 73q49 178 202 239q27 10 77 11.5t71 7.5q6 -43 6 -45q0 -20 -30 -26.5t-36 -20.5q-94 -72 -94 -242q0 -35 5 -105.5t5 -107.5q0 -94 -26 -162q-37 -16 -82 -74.5 t-80 -74.5q4 -18 29 -33q18 -12 39 -23q4 -2 6 -6t8 -6l12 -12q98 -66 98 -242q0 -39 -7 -120t-7 -122q0 -186 146 -253q20 -25 20 -48v-8q-2 -4 -2 -8q-49 -8 -76 -8q-92 0 -190 82q-47 39 -78 104.5t-31 124.5q0 29 10 72q14 55 17 69q6 45 6 103q0 145 -57 233 q-14 23 -56.5 31.5t-52.5 28.5z" />
<glyph unicode=")" horiz-adv-x="747" d="M-41 1573q0 41 33 41q98 0 189 -60.5t134 -150.5q29 -59 29 -135q0 -39 -10 -118t-10 -120q0 -92 43 -158q6 -31 63 -73q14 -8 34.5 -28.5t20.5 -37.5q0 -23 -36 -51q-82 -12 -103 -113q-20 -184 -20 -163q0 -35 5 -108t5 -110q0 -158 -86 -213q-18 -8 -55 -26 q-12 -8 -37 -23q-111 -68 -164 -67h-17q-8 8 -8 22v15q2 10 2 16q14 12 86 45q55 27 72 59q23 47 23 191q0 209 0 188q4 109 41 180q0 37 67.5 90.5t67.5 77.5q0 29 -66 60q-43 20 -72.5 60t-56.5 81q2 47 14 164q10 102 11 162q0 92 -13 127q-4 12 -22 43q-68 113 -158 112 q-6 11 -6 21z" />
<glyph unicode="," horiz-adv-x="641" d="M139 -190q0 10 19 22q14 6 28 14q35 27 56 74l39 92q-16 16 -58.5 20.5t-56.5 16.5q-25 20 -25 84q0 104 101 105q55 0 77 -23q8 -6 50 -63q20 -82 20 -127q0 -74 -41 -121q-29 -10 -76 -72.5t-77 -62.5q-29 0 -52 26q-4 9 -4 15z" />
<glyph unicode="-" d="M125 649q0 37 14 66q303 2 908 -19q2 18 2 -55q0 -33 -13 -49q-45 -12 -94 -12q-27 0 -79 3t-77 3q4 0 -81 -6l-93 -2q-188 -4 -190 -5q-121 0 -289 15q-8 41 -8 61z" />
<glyph unicode="." horiz-adv-x="624" d="M166 184v64q0 90 96 90q70 0 103 -49q0 -8 5 -32t5 -36q0 -23 -10 -37q-14 -20 -49 -40.5t-60 -20.5q-67 0 -90 61z" />
<glyph unicode="/" horiz-adv-x="1390" d="M170 23v51q111 145 225 368l191 387q111 219 205 359q41 80 139 229q66 18 135 19q18 0 29 -2q4 -6 4 -23q0 -23 -19 -51q-12 -14 -32 -45q0 -2 -5 -10l-2 -5v-2q-2 -2 -2 -4l-71 -115q-47 -77 -161 -294l-228 -434q-133 -250 -250 -420q-31 -8 -78 -8h-80z" />
<glyph unicode="0" horiz-adv-x="1742" d="M139 717q0 248 164 407q180 176 504 176q205 0 360 -49q20 -6 89 -56t83 -50q8 -6 21 -15q68 -61 104 -194q33 -113 33 -225q0 -201 -90 -316q-84 -106 -145 -164q-115 -104 -369 -104q-182 0 -297 20.5t-233.5 107.5t-171 194.5t-52.5 267.5zM336 723q0 -152 41 -238 q57 -119 278 -180l37 -10q14 -6 33 -10q205 0 317 34q160 51 244 193q47 80 47 182q0 182 -98 303q-117 145 -479 146q10 0 -47 -8q-127 -33 -320 -181q-53 -96 -53 -231z" />
<glyph unicode="1" horiz-adv-x="925" d="M119 829q172 274 358 459q14 -8 33 -8q10 0 30.5 2t30.5 2q51 0 58 -41q4 -29 4 -106q0 -86 -9.5 -259t-9.5 -260q0 -80 9 -163q10 -104 10 -84v-17q-2 -12 -2 -18q0 -18 4 -58t4 -61q0 -39 -16 -70q-10 6 -31 7q-10 0 -31.5 -3.5t-34.5 -3.5q-33 0 -45 25v838 q-10 18 -26 18q-14 0 -25 -14q-41 -39 -109.5 -127t-109.5 -127q-49 8 -92 69z" />
<glyph unicode="2" horiz-adv-x="1482" d="M139 164q45 317 248 461q82 57 217 104l189 62q106 41 172 98q53 47 53 104q0 35 -6 68q-80 98 -244 98q-74 0 -285 -45q-35 -8 -107.5 -44t-115.5 -40q-27 43 -70 133q217 145 506 146q188 0 305 -47q63 -27 121 -78q68 -61 78 -121v-10q0 -164 -199 -305 q-63 -45 -231 -86q-152 -37 -225 -107q-16 -16 -56 -49q-57 -49 -79 -78q-43 -51 -45 -100l34 -29h795q25 -14 25 -43q0 -12 -2 -18q-10 -45 -11 -54l2 -8q-31 -14 -67 -14q-16 0 -50 4t-53 4q-20 0 -61 -5t-62 -5q-57 0 -174.5 -2t-177.5 -2q-236 0 -424 8z" />
<glyph unicode="3" horiz-adv-x="1630" d="M147 299q23 47 80 133q348 -145 551 -145q106 0 195 28q18 8 59 21q16 4 45 12q119 49 119 139q0 47 -20 95q-25 55 -64 71q-14 6 -43 11q-143 35 -373 49q-10 12 -10 32q0 10 3 31t3 31t-2 16q233 8 363 56l47 61q27 39 26 72q0 37 -41 75q-113 106 -358 107 q-193 0 -356 -113q-61 10 -97 133l117 46q12 8 39 22q111 61 318 61q258 0 440 -133q39 -29 55 -49q39 -57 39 -155q0 -100 -57 -162q-18 -20 -39 -36.5t-21 -27.5q0 -2 2 -2v-4q66 -23 125 -74q66 -57 80 -118q6 -27 6 -54q0 -131 -155 -270q-16 -14 -49 -39 q-16 -10 -52 -20q-109 -35 -407 -41q-16 0 -54 -2t-59 -2q8 0 -76 18q-182 41 -196 45q-111 31 -183 82z" />
<glyph unicode="4" horiz-adv-x="1560" d="M154 428l358 430q211 254 367 422q12 -10 36 -10q16 0 49 5t50 5q45 0 45 -41q0 -8 -3 -26.5t-3 -28.5q0 -426 6 -568q25 -2 100 -16q61 -10 101 -10q23 0 34 2q14 -25 15 -64v-82q-10 -12 -35 -12h-23q-10 0 -30.5 -7t-32.5 -7t-38 4t-40 4q-35 0 -55 -29q-4 -25 -4 -39 q0 -20 5 -61t5 -61q0 -55 -33 -88q-16 8 -39 8q-12 0 -36.5 -3t-39.5 -3q-25 0 -49 12v227l-35 37h-675zM555 627q0 -23 23 -27q27 4 77 4q166 0 209 17q-4 47 2 124q6 94 6 125q0 59 -12 111l-16 20q-47 -45 -201 -247l-53 -62q-35 -40 -35 -65z" />
<glyph unicode="5" horiz-adv-x="1617" d="M150 309q29 78 73 123q369 -131 551 -131q137 0 258 53q80 35 111 68q43 45 43 119q0 53 -84 125q-12 8 -37 26q-57 37 -324 51q-72 4 -73 5q-8 0 -58 -9q-133 -23 -377 -94q-20 0 -20 19q0 6 2 17t2 17q0 8 -2 13q8 129 8 286v295q229 20 553 21q78 0 232.5 -2t232.5 -2 q-2 -18 3 -53t5 -50q0 -59 -43 -59q-12 0 -32 4q-225 -12 -326 -12q-61 0 -180 2h-181q-88 0 -102 -39v-219q14 -16 39 -17q14 0 39 8q145 49 270 50q98 0 234.5 -27t220.5 -66q61 -29 112 -135q47 -98 48 -174q0 -100 -91 -203q-174 -199 -595 -198q-76 0 -189 41 q-162 59 -184 65q-20 20 -69.5 42t-69.5 40z" />
<glyph unicode="6" horiz-adv-x="1679" d="M127 723q0 211 125 352q104 117 319 203q119 47 199 47q346 0 567 -158q-33 -86 -67 -116q-186 141 -522 141q-37 0 -84 -18q-106 -41 -191 -119q-94 -86 -123 -185q-8 -37 -31 -110q10 -2 29 -2q55 0 127 26l121 50q4 2 107.5 20t158.5 18q76 0 191.5 -20.5t181.5 -48.5 q170 -72 170 -328v-18q0 -12 -2 -17q-8 -35 -49 -90q-72 -98 -207 -147q-88 -33 -252 -58q-111 -16 -117 -16q-250 0 -454 145q-25 16 -66 54q-12 12 -35 51q-96 158 -96 344zM338 518q166 -231 414 -231q49 0 120 14l166 29q111 25 150 69.5t39 132.5q0 31 -6 58 q-121 113 -353 112q4 0 -116 -10q-168 -14 -232 -35q-125 -39 -182 -139z" />
<glyph unicode="7" horiz-adv-x="1409" d="M143 1229q0 51 37 51h150q104 0 311 4t309 4h76q49 -2 76 -2q14 -14 14 -29q0 -16 -45 -94q-61 -109 -158 -311q-104 -223 -153 -315q-55 -102 -125 -199q-23 -27 -62 -82q-25 -41 -53 -98l-196 -6q53 154 163 327l84 127q6 20 23.5 61.5t54.5 112.5q55 86 158 264 q6 12 6 25q0 16 -13.5 33.5t-29.5 17.5h-614q4 23 -4.5 59t-8.5 50z" />
<glyph unicode="8" horiz-adv-x="1648" d="M135 502q0 117 45 170l125 100q39 27 55 68q-33 33 -55 47q-12 10 -37 33q-31 33 -35 131q-6 137 93 192q152 86 411 86q598 0 598 -289q0 -125 -104 -239q8 -29 43 -62l57 -53q80 -86 80 -201q0 -106 -76 -184q-68 -70 -176 -100q-43 -8 -133 -31q-100 -29 -235 -29 q-238 0 -465 99q-188 82 -189 209v26q-2 17 -2 27zM301 496q-2 -12 8 -35q39 -86 137 -113q33 -10 183 -24q82 -8 119 -21q217 10 225 10q135 14 213 68q25 63 24 113q0 35 -12 62.5t-56 69.5t-71 50q-66 18 -217 18h-55q-47 2 -74 2q-381 5 -424 -200zM403 1030 q0 -51 62 -112q238 -63 377 -64q156 0 254 68q37 66 37 118q0 31 -7 45q-2 4 -18 21q-70 70 -231 70q-16 0 -66 4q-41 4 -66 2l-155 -8q-88 -10 -141 -58q-46 -39 -46 -86z" />
<glyph unicode="9" horiz-adv-x="1681" d="M135 969q0 49 8 88q88 123 258 196q160 68 320 68q371 0 598 -277q37 -16 51 -53l27 -73l4 -11v-2q4 -4 8 -16q35 -92 35 -209q0 -106 -49 -174q-6 -14 -9.5 -14t-7.5 -5.5t-6 -7.5l-92 -114q-127 -137 -274 -195q-133 -51 -328 -51q-115 0 -254 51q-43 16 -238 102 q-4 12 -4 21q0 20 27 57q33 45 37 58q37 -10 103.5 -43t94.5 -43q121 -43 254 -43q311 0 486 219q6 18 39 73q29 47 28 74q0 27 -14 43q-61 -35 -190 -84q-193 -41 -379 -41q-338 0 -502 205q-31 109 -31 201zM313 911q0 -55 60 -90q129 -76 346 -76q260 0 459 127 q29 0 28 19q0 14 -11 37.5t-11 38.5q-190 199 -477 198q-43 0 -127 -24q-207 -59 -252 -174q-15 -29 -15 -56z" />
<glyph unicode=":" horiz-adv-x="624" d="M141 217q0 113 119 113q100 0 100 -115q0 -104 -86 -104q-33 0 -127 47q-6 28 -6 59zM166 819v64q0 90 96 90q70 0 103 -49q0 -8 5 -32t5 -36q0 -23 -10 -37q-14 -20 -49 -40.5t-60 -20.5q-67 0 -90 61z" />
<glyph unicode=";" horiz-adv-x="641" d="M121 799q0 61 86 112q33 20 45 21q16 0 41.5 -12.5t36.5 -14.5q45 -39 45 -98q0 -102 -123 -102q-131 0 -131 94zM139 -190q0 10 19 22q14 6 28 14q35 27 56 74l39 92q-16 16 -58.5 20.5t-56.5 16.5q-25 20 -25 84q0 104 101 105q55 0 77 -23q8 -6 50 -63q20 -82 20 -127 q0 -74 -41 -121q-29 -10 -76 -72.5t-77 -62.5q-29 0 -52 26q-4 9 -4 15z" />
<glyph unicode="&#x3c;" horiz-adv-x="2435" d="M129 600q0 68 18 129l80 105q51 53 113 53q162 0 201 -37q25 -23 42 -77t17 -91q0 -57 -19.5 -84t-70.5 -45q-20 4 -64 10q-2 0 -8 2h-10q-39 14 -39 70q0 31 26.5 81t26.5 79q-86 35 -98 34q-27 0 -45 -18q-59 -25 -78 -78q-8 -25 -8 -78q0 -154 121 -290q27 -31 45 -46 q70 -53 196 -53q190 0 367 121q74 49 139 115l189 194q115 111 225 150q90 33 219 33q248 0 404 -187q68 -80 67 -209q0 -74 -24 -141q4 -35 -19 -80q-33 -59 -37 -76q-76 -51 -166 -51q-51 0 -79 15q-6 2 -33 18q-102 61 -103 127q0 113 70 158q63 0 84 -7q49 -12 59 -55 q14 -18 15 -37q0 -27 -37 -66.5t-37 -60.5q0 -14 16 -34q18 -6 39 -7q29 0 107 37q66 70 65 158q0 98 -79.5 206.5t-172.5 141.5q-47 16 -112 16q-102 0 -205 -59q-66 -39 -178.5 -135t-169.5 -131q-14 -6 -39 -23q-8 -6 -27 -28q-33 -33 -73 -66q-205 -164 -420 -164 q-70 0 -185 35l-79 25q-70 29 -127 77q-66 59 -84 121q-25 86 -25 203z" />
<glyph unicode="&#x3e;" horiz-adv-x="2473" d="M143 381q0 84 74 319l82 86q59 59 90 70q16 4 45 10q188 33 285 33q176 0 248 -43q14 -8 131 -104q190 -156 362 -330q143 -145 357 -146q106 0 190 43q119 127 119 222q0 10 -4 37q-20 121 -25 135q-20 74 -78 110q-45 6 -65 6q-63 0 -96 -34v-11q-2 -31 24 -49 q27 4 66 -35q-18 -74 -66 -100h-74q-41 0 -66.5 27.5t-25.5 70.5q0 18 6 37q129 145 265 146q43 0 61 -7.5t45 -29.5q106 -90 107 -275q0 -63 -11 -123q-31 -176 -260 -256q-82 -29 -194 -28q-225 0 -396 137q-29 23 -241 176q-147 106 -228 193q-139 61 -141 63 q-82 31 -149 31q-94 0 -190.5 -57.5t-151.5 -137.5q-8 -12 -11 -18q-14 -31 -14 -131q0 -168 102 -213q33 -14 86 -15q49 0 82 27q-6 29 -53 55.5t-47 59.5q0 14 4 28q12 43 44 64l65 41h18q45 0 78 -32t33 -77q0 -37 -25 -116q-12 -41 -57 -62l-19 -8q-33 -18 -45 -39 q-41 -10 -76 -10q-121 0 -190.5 69.5t-69.5 190.5z" />
<glyph unicode="?" horiz-adv-x="1198" d="M139 1317q0 12 6 24q61 98 285 99q154 0 199 4q10 2 30 2q76 0 150 -57q66 -51 104 -125q31 -57 31 -150q0 -133 -72.5 -229.5t-138.5 -110.5l-151 -145q-33 -90 -50 -193q-29 -29 -94 -28q-29 0 -63 6q-14 33 -15 112q0 152 89 211l40 23q14 6 56 35q213 152 213 292 q0 80 -39 152q-66 49 -168 49q-37 0 -110.5 -9t-112.5 -9q-25 0 -69 -22.5t-60 -22.5q-23 0 -41 37q-19 30 -19 55zM338 176q0 98 154 98q88 0 88 -102q0 -53 -32 -87t-85 -34q-6 0 -41 6q-41 8 -55.5 39t-26.5 64q-2 6 -2 16z" />
<glyph unicode="A" horiz-adv-x="1460" d="M45 139q127 256 399 762l48 80q12 29 38 84l54 109q33 66 45 114q16 23 49 23q16 0 46 -6.5t44 -6.5h6q27 -47 76 -141l41 -102q70 -174 205 -463q158 -334 211 -459q-33 -12 -78 -12q-12 0 -39 2h-39q-29 37 -57 117q-23 61 -43 125q-59 150 -185 149h-16q-10 -2 -16 -2 q-35 0 -107 5t-109 5q-20 0 -60 -6t-56 -6q-14 0 -35 6q-27 6 -35 6q-33 -49 -113 -200q-68 -127 -122 -195q-39 -6 -78 -6q-45 0 -74 18zM504 674q20 1 46 0q51 0 120 -2q121 -6 166 -6q31 0 47 2q-8 23 -64 153q-8 25 -26 76l-82 160q-4 2 -13 2q-10 0 -14 -2 q-14 -33 -102 -187q-66 -114 -78 -196z" />
<glyph unicode="B" horiz-adv-x="1466" d="M125 1294q123 -12 305 -12q47 0 139 2h140q162 0 303 -41q20 -6 66 -44t83 -46q31 -96 31 -174q0 -113 -59 -186q-45 -12 -46 -52q0 -18 25 -43q8 -8 25 -22q57 -53 69 -68q37 -45 37 -88q0 -20 -6 -39q4 -20 4 -30q0 -18 -13.5 -55.5t-13.5 -57.5q0 -12 3 -19 q-96 -209 -416 -208q-70 0 -208 11t-208 11q2 0 -238 -6q-2 293 -2 584q-4 333 -20 583zM274 850l23 -35q197 -12 293 -12h121q299 12 299 174q0 63 -49 123q-139 55 -379 55h-207q-20 -6 -33 -6q-55 0 -68 -16v-283zM293 289l8 -17q442 -6 440 -6l66 6q274 27 274 172 q0 199 -374 199q-41 0 -124 -4t-126 -4q-80 0 -138 10l-26 -16v-340z" />
<glyph unicode="C" horiz-adv-x="1626" d="M154 674q0 213 133 413q31 45 53 67t70 50q221 131 452 131q121 0 217 -37q86 -33 78 -32v2q20 -2 64 -33l61 -43q14 -8 41 -27q29 -25 29 -57q0 -14 -6 -27l-23 -22q-53 -57 -80 -58q-2 0 -6 3h-8q-129 82 -187 108q-109 53 -204 53q-225 0 -394 -139q-23 -18 -59 -59 q-6 -14 -23 -43q-63 -152 -63 -275q0 -131 68 -225q31 -14 73.5 -63.5t73.5 -63.5q127 -61 277 -61q252 0 448 145q6 -2 12 -2q10 0 27.5 8t26.5 8q16 0 22 -14q37 -23 41 -92q-207 -152 -420 -201q-53 -12 -69 -12q-371 0 -531 164q-39 39 -86 118q-55 92 -78 123 q-30 97 -30 193z" />
<glyph unicode="D" horiz-adv-x="1542" d="M123 956q0 33 4 97.5t4 95.5q0 78 -8 141q8 12 33.5 12.5t33.5 6.5q74 -8 168 -9q371 0 455 -14q256 -41 379 -217q127 -182 127 -250q0 -14 -3 -44t-3 -46v-158q-8 -90 -49 -145q-10 -61 -150 -197q-86 -84 -233 -110q-90 -18 -263 -19q-293 0 -489 25v43q0 82 6 241.5 t6 239.5q0 102 -8 205q-8 107 -10 107v-5zM301 285l10 -11q31 2 92 2h107q72 -2 106 -2q252 0 371 62q59 31 100 98q18 33 60 131q-4 92 -6 185q-6 113 -45 176q-12 20 -43 51q-94 96 -230 135q-43 12 -49 12q-154 0 -461 13q-12 -158 -12 -394v-458z" />
<glyph unicode="E" horiz-adv-x="1431" d="M127 231q0 41 10 123t10 123q0 33 -4 96.5t-4 96.5q0 59 5.5 179t5.5 179q0 86 -11 166q-10 79 -12 79v-3q0 35 37 35q8 0 25.5 -2.5t27.5 -2.5q20 0 33 11q115 -16 303 -17q72 0 215 3t215 3h59q41 -2 60 -2q14 4 12 5q6 6 14 6q12 0 19 -11l-17 -116q-145 -16 -378 -17 q-53 0 -160 2h-160q-68 0 -100 -2l-31 -32q6 -31 6 -64q0 -27 -8 -85q-7 -47 -7 -77q0 -8 1 -14l2 -27l22 -22q51 -12 132 -13q149 0 148 2l-9 1q82 -2 137 -23v-100q-68 -6 -133 -6q-219 0 -287 -17l-10 -12l6 -367l27 -26q47 2 139 2q96 0 287.5 -7.5t287.5 -7.5 q94 0 142 2q12 -14 12 -36q0 -12 -3 -33t-3 -31q0 -14 2 -22l-12 -13h-82q-55 -2 -84 -2q-102 0 -306 4t-307 4q-129 0 -262 -6q-12 47 -12 94z" />
<glyph unicode="F" horiz-adv-x="1378" d="M133 176q0 -10 8 250q10 326 11 528q0 166 -7 332q23 11 63 11h7q45 -1 64 6q389 -16 585 -17q125 0 250 6q12 -25 12 -61v-33q-2 -23 -2 -35l-790 -4q-18 0 -31.5 -17.5t-13.5 -35.5v-141q0 -113 26 -140l496 -6q8 -31 8 -67v-78q-68 -8 -153 -8q-37 0 -112 2t-114 2 q-63 0 -129 -6l-14 -21v-512q-23 -16 -55 -16q-14 0 -44 5t-46 5h-7q-12 43 -12 51z" />
<glyph unicode="G" horiz-adv-x="1568" d="M125 725q0 80 6 115l19 57q51 158 135 223q272 213 506 213q63 0 161 -26q92 -25 201 -109q20 -16 64 -47q18 -10 37.5 -22.5t29.5 -32.5q-29 -59 -29 -62q-18 -31 -43 -49l-161 115q-104 63 -183 63l-22 -2q-324 0 -498 -192q-76 -84 -76 -226q0 -180 76 -299 q45 -72 123 -129t158 -75q18 -4 22 -4q313 0 426 59q66 35 86 143q6 35 13 174q-88 16 -199 17q-2 0 -205 -6q-20 16 -20 47v65l20 10q23 4 68 5q43 0 132 -8.5t134 -8.5q70 0 133 19q8 -6 27 -7q63 0 73 -16l-16 -307q-20 -176 -145 -254q-156 -96 -383 -96q-162 0 -308 51 q-176 59 -247 174q-2 4 -37 84q-14 27 -37 82q-41 119 -41 262z" />
<glyph unicode="H" horiz-adv-x="1484" d="M129 160v184l12 959q8 -2 25 -3q14 0 43 5.5t45 5.5q23 0 39 -8l4 -445q10 -18 35.5 -22.5t48.5 -6.5q35 -6 57 -6q53 0 162 2h160q137 0 272 -6l17 17q6 29 6 90q0 39 -6.5 115.5t-6.5 115.5q0 74 17 129q55 16 104 17q31 0 45 -5q16 -23 17 -71q0 -27 5 -79t5 -79 q0 -147 -10.5 -441t-10.5 -440v-57l-139 -8v514q-6 25 -26 33q-182 -6 -265 -6q-348 0 -465 -7l-22 -20q2 -39 2 -90.5t-2 -116.5q-6 -162 -6 -207q0 -53 2 -80q-25 -18 -57 -18q-25 0 -95 18z" />
<glyph unicode="I" horiz-adv-x="546" d="M129 131q10 162 10 387q0 94 -4 279.5t-4 277.5q0 143 31 230q18 -12 57 -13q49 -2 66 -6q4 -307 4 -459v-247q0 -152 -4 -455q-20 -16 -41 -16q-14 0 -42 7t-40 7q-16 0 -23 -4z" />
<glyph unicode="J" horiz-adv-x="1529" d="M141 399q8 33 52 50q61 23 71 30q23 -41 76 -94q66 -63 84 -88q92 -55 219 -55q113 0 205 32q70 25 104 99l60 133v282q0 242 -2 363q-53 0 -236 -4q-147 -4 -237 -4q-39 0 -116 4t-116 4q-66 0 -100 -4q4 20 0 51q-6 39 -6 49q0 49 43 49h65q43 -2 64 -2h176 q80 0 237.5 2t235.5 2q23 0 68 -3t69 -3q-2 -43 -2 -127q0 -55 2 -168.5t2 -171.5q0 -268 -12 -346q-33 -201 -162 -289q-35 -2 -96.5 -34.5t-100.5 -32.5q-27 0 -80 -2t-79 -2q-250 0 -355 100q-27 27 -65.5 90t-67.5 90z" />
<glyph unicode="K" horiz-adv-x="1456" d="M127 1124q0 29 2 86v88q23 25 74 25q45 0 82 -14l6 -561q4 -14 12 -15q12 0 25 6l14 4q8 4 12 5q121 102 289 270l281 280q10 -2 28 -2q16 0 49 4.5t50 4.5q35 0 67 -19l-387 -375l447 -796q-53 -14 -88 -15q-49 0 -80 25q-49 117 -154 278q-162 254 -171 271.5t-34 56.5 q-20 27 -43 27q-6 0 -16 -6l-4 -7q-137 -113 -287 -268l-10 -368h-158q4 152 4 223q0 133 -5 397t-5 395z" />
<glyph unicode="L" horiz-adv-x="1300" d="M156 500q0 92 3 276.5t3 276.5q0 131 -6 262q45 16 84 16q20 0 39 -6l10 -16l18 -1018q25 -27 92 -27h660q16 -16 16 -37q0 -12 -2 -20q-12 -45 -12 -53q0 -10 4 -23l-12 -12q-39 -2 -121 -2q-102 0 -310 8t-313 8q-47 0 -141 -4q-12 150 -12 371z" />
<glyph unicode="M" horiz-adv-x="1617" d="M143 469q0 100 6.5 304t6.5 306q0 147 -6 224q25 0 71 2h70q27 0 41 -26t23.5 -47.5t37.5 -68.5q53 -88 168 -309q106 -199 174 -305q37 10 86 98q25 45 191 316q119 193 174 327q20 23 55 23q14 0 42 -5t42 -5h16q12 -84 13 -211q0 -133 -5.5 -398.5t-5.5 -398.5 q0 -31 3 -92v-92q-20 -10 -52 -11q-37 0 -92 19l-6 20q-4 8 -6 17q0 20 2 61v62q0 74 -4 220t-4 218q0 98 6 192q-4 16 -19 17h-8q-51 -96 -168 -281q-10 -12 -28 -39l-19 -43q-25 -53 -102 -178q-70 -111 -98 -180q-33 39 -64 106l-49 115q-123 246 -254 428q-29 8 -53 37 q-4 -20 -4 -31q0 -18 6 -54t6 -54q0 2 -19 -625q-31 -16 -69 -16q-29 0 -86 8q-19 149 -19 350z" />
<glyph unicode="N" horiz-adv-x="1472" d="M131 109q8 123 8 276q0 80 -3 244t-3 245q0 254 23 426q16 0 48 3.5t48 3.5q23 0 39 -7q31 -12 82 -73l69 -94l50 -54q16 -23 49 -63l499 -580h15q23 240 22 852q37 12 74 12q41 0 68 -16q0 -109 5 -326t5 -323q0 -143 -4 -211q-8 -133 -8 -186q0 -90 16 -140 q-31 -10 -74 -10q-29 0 -86 4q-106 123 -348 459q-215 297 -360 448q-25 12 -41 13h-9l-16 -23q2 -18 2 -57q0 -45 -9 -135t-9 -135q0 -403 4 -515q4 -16 4 -24q0 -6 -4 -19z" />
<glyph unicode="O" horiz-adv-x="1667" d="M131 770l84 219q47 123 143 189q225 154 426 153q156 0 313.5 -88t239.5 -219q74 -119 74 -379v-61q-2 -41 -2 -62q-25 -35 -46.5 -108.5t-57.5 -112.5q-205 -219 -442 -219h-5q-92 -10 -108 -10q-197 0 -381 118q-94 59 -140.5 157.5t-87.5 197.5zM293 721 q0 -41 10 -109q41 -270 225 -346q119 -49 260 -49q158 0 250 49q35 18 74 53q162 143 162 369q0 127 -76 246q-16 27 -51 74q-133 156 -379 155q-96 0 -162 -18q-106 -31 -190 -133q-74 -90 -107 -207q-16 -59 -16 -84z" />
<glyph unicode="P" horiz-adv-x="1435" d="M127 193q0 20 9 63t9 66q0 119 -5 355t-5 353q0 193 4 289l19 10q96 -10 176 -10q59 0 176 5t174 5q242 0 387 -78q16 -6 45 -26q2 -2 19 -29q68 -111 67 -248q0 -150 -59 -221q-35 -43 -133 -68q-16 -4 -152 -28q-23 -6 -68 -13.5t-167 -7.5q-172 0 -312 8l-20 -22 q-4 -74 -5 -223.5t-5 -222.5h-148q-6 23 -6 43zM291 1057q0 -45 5 -134t5 -135l174 -4q31 0 119 -4q74 -4 117 -4q330 0 329 144q0 29 -15 79t-15 74q-45 84 -236 84q-281 0 -352 10q-12 -10 -37 -10q-8 0 -26.5 3t-28.5 3q-18 0 -35 -12q-4 -61 -4 -94z" />
<glyph unicode="Q" horiz-adv-x="1710" d="M141 793q0 37 21 98q86 256 368 381q66 29 117 39q33 6 111 6q238 0 444 -117q27 -14 78 -49q14 -12 47 -57q131 -182 131 -410q0 -135 -53 -254q-27 -59 -100 -137q-90 -92 -115 -129q45 -33 117 -119q-61 -70 -123 -70q-43 0 -84 62q-10 16 -35 43q-23 18 -41 18 t-43 -16q-57 -6 -117 -6q-154 0 -323 39q-18 2 -56 12q-70 25 -213 209q-20 27 -61 74q-41 104 -59 272q-11 95 -11 111zM319 721q0 -102 25 -232q129 -195 281 -229q2 0 92 -27q53 -16 92 -16t68 14q-2 20 -19 48q-23 33 -27 40q16 20 54.5 37t52.5 29q25 -2 61.5 -37 t61.5 -35q29 0 88 56q145 135 145 338q0 180 -82 278q-6 8 -61 53q-176 145 -397 146q-29 0 -101 -25q-197 -68 -262 -149q-72 -90 -72 -289z" />
<glyph unicode="R" horiz-adv-x="1474" d="M115 147q0 14 4 35t10 176q8 180 8 371v225q-2 152 -2 228v141q47 8 103 8q39 0 119.5 -6t121.5 -6q70 0 125 16l285 -41q168 -29 260 -108q43 -37 61 -68q29 -49 29 -180q0 -82 -10 -117q-2 -10 -27 -51q-96 -168 -233 -168q-8 -6 -27 -22q29 -94 113 -232 q102 -170 127 -225v-12q-20 4 -33 4q-12 0 -39 -2t-41 -2q-61 0 -86 45l-223 424l-29 22q-45 -4 -69 -4q-37 0 -111 4t-111 4q-80 0 -131 -12l-16 -27q2 -20 2 -63q0 -53 -8 -158.5t-8 -159.5q0 -25 4 -73l-19 -13q-20 6 -45 6q-20 0 -31 -2q-73 0 -73 43zM309 795l17 -15 q84 -25 243 -24q33 0 99 2h98h65q2 0 54 8q174 27 196 117q4 16 4 47q0 111 -69 155q-115 74 -504 82q-16 0 -70 2q-41 2 -67 2q-47 0 -62 -26z" />
<glyph unicode="S" horiz-adv-x="1544" d="M139 315l97 88q205 -205 489 -204q125 0 236 45q137 55 174 153q12 25 12 43q0 8 -10 47q-25 96 -93 117q-76 23 -192 31q-6 0 -195 4q-12 -1 -26 -1q-43 0 -109 5q-8 2 -59 21q-158 57 -230 157q-20 129 -20 158q0 88 43 139q16 18 59 56q179 152 351 151h18 q311 -14 479 -151q35 -2 64 -29q0 -2 2 -6v-6q0 -20 -35 -54q-18 -16 -45 -49q-6 -4 -19 -4q-12 0 -38 18q-8 8 -21 17l-18 12q-170 78 -369 78q-174 0 -283 -90q-51 -43 -51 -92q0 -18 8 -37q63 -150 338 -150q18 0 70 2h72q90 -2 141 -16q106 -31 143 -49 q193 -100 193 -326q0 -8 -2 -12q-16 -92 -88 -172t-164 -103q-260 -66 -346 -65q-150 0 -313 78.5t-263 195.5z" />
<glyph unicode="T" horiz-adv-x="1470" d="M141 1188v80q0 72 49 71h3q722 -21 722 -22h-4q84 0 260 4q16 -82 17 -90q0 -33 -19 -49h-383l-10 -17v-133q0 -461 -6 -543q0 -12 -8 -59q-4 -39 -4 -61q0 -35 6 -104.5t6 -104.5q0 -47 -65 -47q-12 0 -39 3t-41 3q-6 0 -27 -4q12 262 12 516q0 231 -8 366q0 49 -10 148 q-10 39 -66 39h-32q-23 -2 -33 -2q-12 0 -43 6t-84 6q-127 0 -193 -6z" />
<glyph unicode="U" horiz-adv-x="1476" d="M127 1264q25 20 68 20q25 0 77 -8q14 -117 21 -395q0 -66 6 -195q4 -25 10 -74l4 -127q8 -74 41 -116q55 -72 166 -113q96 -37 199 -37q150 0 219 39q29 16 57 49q66 74 82 213l13 232q4 72 4 102q0 55 -27 418q61 16 94 16q18 0 37 -6q23 -160 23 -397q0 -49 -2 -149.5 t-2 -151.5q0 -106 -2.5 -123t-16.5 -70q-47 -174 -158 -233q-143 -76 -391 -76q-156 0 -191.5 8t-97 40t-84.5 56q-14 12 -43 62q-102 176 -102 489q0 55 3 166t3 168q0 113 -10 193z" />
<glyph unicode="V" horiz-adv-x="1427" d="M33 1300q10 0 47 5q29 4 47 4q47 0 72 -31q14 -14 39 -72q35 -78 34 -80q76 -141 213 -430q8 -23 29 -67q12 -20 33 -62l47 -96q29 -53 68 -84q27 33 57 94l51 99q252 428 385 727q29 12 55 12q8 0 35 -2q20 -2 35 0v-35l-287 -573q-168 -340 -270 -584l-129 -4 q-55 86 -125 239q-84 186 -117 246q-66 119 -151 322l-58 129q-8 23 -30 65l-48 89q-26 46 -32 89z" />
<glyph unicode="W" horiz-adv-x="1728" d="M25 1284q25 12 61 12q20 0 61 -4q12 -18 95 -219q37 -88 215 -598q33 -33 41 -33q2 0 6 2q8 12 22 37q4 8 23 82l56 185l169 552h68q63 -139 137 -415q76 -291 131 -418l6 -6q8 -14 17 -15q2 0 4 3q78 164 168 421l147 430q-4 0 -4 1t70 2q35 0 57 -13q-16 -20 -23 -67 q-10 -61 -12 -70l-323 -1040q-27 -12 -68 -13h-78q-86 213 -133 387l-43 190q-29 126 -88 216q-18 -8 -22.5 -33.5t-10.5 -47t-22.5 -66t-51.5 -150.5l-139 -457q-25 -12 -63 -12q-37 0 -70 8q-51 162 -164 483z" />
<glyph unicode="X" horiz-adv-x="1593" d="M147 104v31q207 252 246 303q137 172 230 314l-7 43q-76 82 -194 249q-125 178 -191 252q12 -2 29.5 -2t38.5 2q66 6 63 7q74 0 91 -64q45 -43 131 -164q78 -111 139 -157h20q68 68 160 184q125 156 154 188q104 16 121 17q35 0 67 -13v-16q-63 -100 -190 -248 q-154 -182 -199 -244l8 -53q147 -205 459 -598l2 -24q-61 -6 -119 -7q-37 0 -55 2q-66 74 -197 252q-123 166 -200 248q-27 -4 -42.5 -28.5t-27.5 -47.5q-12 -14 -39 -43l-78 -86l-241 -278q-20 -6 -62 -6q-84 -1 -117 -13z" />
<glyph unicode="Y" horiz-adv-x="1525" d="M145 1303l174 12q57 -63 367 -457l39 6q72 98 195 238q197 217 206 229q4 0 15 2h14q18 0 54 -4t55 -4q18 0 28 2q2 -6 2 -18q0 -31 -51 -82l-438 -547q4 -66 4 -102q0 -61 -8 -180t-8 -179q0 -10 2 -31v-32q-23 -23 -70 -23q-18 0 -47 4q-37 4 -47 4l-6 17 q-31 84 -31 217q0 72 10 187.5t10 146.5q-88 125 -229 299z" />
<glyph unicode="Z" horiz-adv-x="1443" d="M139 123q0 35 39 82q25 25 58 76q111 117 243 297l226 309l131 172q23 25 61 76q2 2 2 10q0 29 -29 29l-720 6q-4 16 -5 49q0 53 21 100l1026 -6v-33l-721 -991q-4 -23 10 -33q63 1 125 1q279 0 537 -15v-117z" />
<glyph unicode="`" horiz-adv-x="815" d="M160 1722l6 13h194q127 -117 148 -195q-53 -4 -162 -10z" />
<glyph unicode="a" horiz-adv-x="1460" d="M45 139q127 256 399 762l48 80q12 29 38 84l54 109q33 66 45 114q16 23 49 23q16 0 46 -6.5t44 -6.5h6q27 -47 76 -141l41 -102q70 -174 205 -463q158 -334 211 -459q-33 -12 -78 -12q-12 0 -39 2h-39q-29 37 -57 117q-23 61 -43 125q-59 150 -185 149h-16q-10 -2 -16 -2 q-35 0 -107 5t-109 5q-20 0 -60 -6t-56 -6q-14 0 -35 6q-27 6 -35 6q-33 -49 -113 -200q-68 -127 -122 -195q-39 -6 -78 -6q-45 0 -74 18zM504 674q20 1 46 0q51 0 120 -2q121 -6 166 -6q31 0 47 2q-8 23 -64 153q-8 25 -26 76l-82 160q-4 2 -13 2q-10 0 -14 -2 q-14 -33 -102 -187q-66 -114 -78 -196z" />
<glyph unicode="b" horiz-adv-x="1466" d="M125 1294q123 -12 305 -12q47 0 139 2h140q162 0 303 -41q20 -6 66 -44t83 -46q31 -96 31 -174q0 -113 -59 -186q-45 -12 -46 -52q0 -18 25 -43q8 -8 25 -22q57 -53 69 -68q37 -45 37 -88q0 -20 -6 -39q4 -20 4 -30q0 -18 -13.5 -55.5t-13.5 -57.5q0 -12 3 -19 q-96 -209 -416 -208q-70 0 -208 11t-208 11q2 0 -238 -6q-2 293 -2 584q-4 333 -20 583zM274 850l23 -35q197 -12 293 -12h121q299 12 299 174q0 63 -49 123q-139 55 -379 55h-207q-20 -6 -33 -6q-55 0 -68 -16v-283zM293 289l8 -17q442 -6 440 -6l66 6q274 27 274 172 q0 199 -374 199q-41 0 -124 -4t-126 -4q-80 0 -138 10l-26 -16v-340z" />
<glyph unicode="c" horiz-adv-x="1626" d="M154 674q0 213 133 413q31 45 53 67t70 50q221 131 452 131q121 0 217 -37q86 -33 78 -32v2q20 -2 64 -33l61 -43q14 -8 41 -27q29 -25 29 -57q0 -14 -6 -27l-23 -22q-53 -57 -80 -58q-2 0 -6 3h-8q-129 82 -187 108q-109 53 -204 53q-225 0 -394 -139q-23 -18 -59 -59 q-6 -14 -23 -43q-63 -152 -63 -275q0 -131 68 -225q31 -14 73.5 -63.5t73.5 -63.5q127 -61 277 -61q252 0 448 145q6 -2 12 -2q10 0 27.5 8t26.5 8q16 0 22 -14q37 -23 41 -92q-207 -152 -420 -201q-53 -12 -69 -12q-371 0 -531 164q-39 39 -86 118q-55 92 -78 123 q-30 97 -30 193z" />
<glyph unicode="d" horiz-adv-x="1542" d="M123 956q0 33 4 97.5t4 95.5q0 78 -8 141q8 12 33.5 12.5t33.5 6.5q74 -8 168 -9q371 0 455 -14q256 -41 379 -217q127 -182 127 -250q0 -14 -3 -44t-3 -46v-158q-8 -90 -49 -145q-10 -61 -150 -197q-86 -84 -233 -110q-90 -18 -263 -19q-293 0 -489 25v43q0 82 6 241.5 t6 239.5q0 102 -8 205q-8 107 -10 107v-5zM301 285l10 -11q31 2 92 2h107q72 -2 106 -2q252 0 371 62q59 31 100 98q18 33 60 131q-4 92 -6 185q-6 113 -45 176q-12 20 -43 51q-94 96 -230 135q-43 12 -49 12q-154 0 -461 13q-12 -158 -12 -394v-458z" />
<glyph unicode="e" horiz-adv-x="1431" d="M127 231q0 41 10 123t10 123q0 33 -4 96.5t-4 96.5q0 59 5.5 179t5.5 179q0 86 -11 166q-10 79 -12 79v-3q0 35 37 35q8 0 25.5 -2.5t27.5 -2.5q20 0 33 11q115 -16 303 -17q72 0 215 3t215 3h59q41 -2 60 -2q14 4 12 5q6 6 14 6q12 0 19 -11l-17 -116q-145 -16 -378 -17 q-53 0 -160 2h-160q-68 0 -100 -2l-31 -32q6 -31 6 -64q0 -27 -8 -85q-7 -47 -7 -77q0 -8 1 -14l2 -27l22 -22q51 -12 132 -13q149 0 148 2l-9 1q82 -2 137 -23v-100q-68 -6 -133 -6q-219 0 -287 -17l-10 -12l6 -367l27 -26q47 2 139 2q96 0 287.5 -7.5t287.5 -7.5 q94 0 142 2q12 -14 12 -36q0 -12 -3 -33t-3 -31q0 -14 2 -22l-12 -13h-82q-55 -2 -84 -2q-102 0 -306 4t-307 4q-129 0 -262 -6q-12 47 -12 94z" />
<glyph unicode="f" horiz-adv-x="1378" d="M133 176q0 -10 8 250q10 326 11 528q0 166 -7 332q23 11 63 11h7q45 -1 64 6q389 -16 585 -17q125 0 250 6q12 -25 12 -61v-33q-2 -23 -2 -35l-790 -4q-18 0 -31.5 -17.5t-13.5 -35.5v-141q0 -113 26 -140l496 -6q8 -31 8 -67v-78q-68 -8 -153 -8q-37 0 -112 2t-114 2 q-63 0 -129 -6l-14 -21v-512q-23 -16 -55 -16q-14 0 -44 5t-46 5h-7q-12 43 -12 51z" />
<glyph unicode="g" horiz-adv-x="1568" d="M125 725q0 80 6 115l19 57q51 158 135 223q272 213 506 213q63 0 161 -26q92 -25 201 -109q20 -16 64 -47q18 -10 37.5 -22.5t29.5 -32.5q-29 -59 -29 -62q-18 -31 -43 -49l-161 115q-104 63 -183 63l-22 -2q-324 0 -498 -192q-76 -84 -76 -226q0 -180 76 -299 q45 -72 123 -129t158 -75q18 -4 22 -4q313 0 426 59q66 35 86 143q6 35 13 174q-88 16 -199 17q-2 0 -205 -6q-20 16 -20 47v65l20 10q23 4 68 5q43 0 132 -8.5t134 -8.5q70 0 133 19q8 -6 27 -7q63 0 73 -16l-16 -307q-20 -176 -145 -254q-156 -96 -383 -96q-162 0 -308 51 q-176 59 -247 174q-2 4 -37 84q-14 27 -37 82q-41 119 -41 262z" />
<glyph unicode="h" horiz-adv-x="1484" d="M129 160v184l12 959q8 -2 25 -3q14 0 43 5.5t45 5.5q23 0 39 -8l4 -445q10 -18 35.5 -22.5t48.5 -6.5q35 -6 57 -6q53 0 162 2h160q137 0 272 -6l17 17q6 29 6 90q0 39 -6.5 115.5t-6.5 115.5q0 74 17 129q55 16 104 17q31 0 45 -5q16 -23 17 -71q0 -27 5 -79t5 -79 q0 -147 -10.5 -441t-10.5 -440v-57l-139 -8v514q-6 25 -26 33q-182 -6 -265 -6q-348 0 -465 -7l-22 -20q2 -39 2 -90.5t-2 -116.5q-6 -162 -6 -207q0 -53 2 -80q-25 -18 -57 -18q-25 0 -95 18z" />
<glyph unicode="i" horiz-adv-x="546" d="M129 131q10 162 10 387q0 94 -4 279.5t-4 277.5q0 143 31 230q18 -12 57 -13q49 -2 66 -6q4 -307 4 -459v-247q0 -152 -4 -455q-20 -16 -41 -16q-14 0 -42 7t-40 7q-16 0 -23 -4z" />
<glyph unicode="j" horiz-adv-x="1529" d="M141 399q8 33 52 50q61 23 71 30q23 -41 76 -94q66 -63 84 -88q92 -55 219 -55q113 0 205 32q70 25 104 99l60 133v282q0 242 -2 363q-53 0 -236 -4q-147 -4 -237 -4q-39 0 -116 4t-116 4q-66 0 -100 -4q4 20 0 51q-6 39 -6 49q0 49 43 49h65q43 -2 64 -2h176 q80 0 237.5 2t235.5 2q23 0 68 -3t69 -3q-2 -43 -2 -127q0 -55 2 -168.5t2 -171.5q0 -268 -12 -346q-33 -201 -162 -289q-35 -2 -96.5 -34.5t-100.5 -32.5q-27 0 -80 -2t-79 -2q-250 0 -355 100q-27 27 -65.5 90t-67.5 90z" />
<glyph unicode="k" horiz-adv-x="1456" d="M127 1124q0 29 2 86v88q23 25 74 25q45 0 82 -14l6 -561q4 -14 12 -15q12 0 25 6l14 4q8 4 12 5q121 102 289 270l281 280q10 -2 28 -2q16 0 49 4.5t50 4.5q35 0 67 -19l-387 -375l447 -796q-53 -14 -88 -15q-49 0 -80 25q-49 117 -154 278q-162 254 -171 271.5t-34 56.5 q-20 27 -43 27q-6 0 -16 -6l-4 -7q-137 -113 -287 -268l-10 -368h-158q4 152 4 223q0 133 -5 397t-5 395z" />
<glyph unicode="l" horiz-adv-x="1300" d="M156 500q0 92 3 276.5t3 276.5q0 131 -6 262q45 16 84 16q20 0 39 -6l10 -16l18 -1018q25 -27 92 -27h660q16 -16 16 -37q0 -12 -2 -20q-12 -45 -12 -53q0 -10 4 -23l-12 -12q-39 -2 -121 -2q-102 0 -310 8t-313 8q-47 0 -141 -4q-12 150 -12 371z" />
<glyph unicode="m" horiz-adv-x="1617" d="M143 469q0 100 6.5 304t6.5 306q0 147 -6 224q25 0 71 2h70q27 0 41 -26t23.5 -47.5t37.5 -68.5q53 -88 168 -309q106 -199 174 -305q37 10 86 98q25 45 191 316q119 193 174 327q20 23 55 23q14 0 42 -5t42 -5h16q12 -84 13 -211q0 -133 -5.5 -398.5t-5.5 -398.5 q0 -31 3 -92v-92q-20 -10 -52 -11q-37 0 -92 19l-6 20q-4 8 -6 17q0 20 2 61v62q0 74 -4 220t-4 218q0 98 6 192q-4 16 -19 17h-8q-51 -96 -168 -281q-10 -12 -28 -39l-19 -43q-25 -53 -102 -178q-70 -111 -98 -180q-33 39 -64 106l-49 115q-123 246 -254 428q-29 8 -53 37 q-4 -20 -4 -31q0 -18 6 -54t6 -54q0 2 -19 -625q-31 -16 -69 -16q-29 0 -86 8q-19 149 -19 350z" />
<glyph unicode="n" horiz-adv-x="1472" d="M131 109q8 123 8 276q0 80 -3 244t-3 245q0 254 23 426q16 0 48 3.5t48 3.5q23 0 39 -7q31 -12 82 -73l69 -94l50 -54q16 -23 49 -63l499 -580h15q23 240 22 852q37 12 74 12q41 0 68 -16q0 -109 5 -326t5 -323q0 -143 -4 -211q-8 -133 -8 -186q0 -90 16 -140 q-31 -10 -74 -10q-29 0 -86 4q-106 123 -348 459q-215 297 -360 448q-25 12 -41 13h-9l-16 -23q2 -18 2 -57q0 -45 -9 -135t-9 -135q0 -403 4 -515q4 -16 4 -24q0 -6 -4 -19z" />
<glyph unicode="o" horiz-adv-x="1667" d="M131 770l84 219q47 123 143 189q225 154 426 153q156 0 313.5 -88t239.5 -219q74 -119 74 -379v-61q-2 -41 -2 -62q-25 -35 -46.5 -108.5t-57.5 -112.5q-205 -219 -442 -219h-5q-92 -10 -108 -10q-197 0 -381 118q-94 59 -140.5 157.5t-87.5 197.5zM293 721 q0 -41 10 -109q41 -270 225 -346q119 -49 260 -49q158 0 250 49q35 18 74 53q162 143 162 369q0 127 -76 246q-16 27 -51 74q-133 156 -379 155q-96 0 -162 -18q-106 -31 -190 -133q-74 -90 -107 -207q-16 -59 -16 -84z" />
<glyph unicode="p" horiz-adv-x="1435" d="M127 193q0 20 9 63t9 66q0 119 -5 355t-5 353q0 193 4 289l19 10q96 -10 176 -10q59 0 176 5t174 5q242 0 387 -78q16 -6 45 -26q2 -2 19 -29q68 -111 67 -248q0 -150 -59 -221q-35 -43 -133 -68q-16 -4 -152 -28q-23 -6 -68 -13.5t-167 -7.5q-172 0 -312 8l-20 -22 q-4 -74 -5 -223.5t-5 -222.5h-148q-6 23 -6 43zM291 1057q0 -45 5 -134t5 -135l174 -4q31 0 119 -4q74 -4 117 -4q330 0 329 144q0 29 -15 79t-15 74q-45 84 -236 84q-281 0 -352 10q-12 -10 -37 -10q-8 0 -26.5 3t-28.5 3q-18 0 -35 -12q-4 -61 -4 -94z" />
<glyph unicode="q" horiz-adv-x="1710" d="M141 793q0 37 21 98q86 256 368 381q66 29 117 39q33 6 111 6q238 0 444 -117q27 -14 78 -49q14 -12 47 -57q131 -182 131 -410q0 -135 -53 -254q-27 -59 -100 -137q-90 -92 -115 -129q45 -33 117 -119q-61 -70 -123 -70q-43 0 -84 62q-10 16 -35 43q-23 18 -41 18 t-43 -16q-57 -6 -117 -6q-154 0 -323 39q-18 2 -56 12q-70 25 -213 209q-20 27 -61 74q-41 104 -59 272q-11 95 -11 111zM319 721q0 -102 25 -232q129 -195 281 -229q2 0 92 -27q53 -16 92 -16t68 14q-2 20 -19 48q-23 33 -27 40q16 20 54.5 37t52.5 29q25 -2 61.5 -37 t61.5 -35q29 0 88 56q145 135 145 338q0 180 -82 278q-6 8 -61 53q-176 145 -397 146q-29 0 -101 -25q-197 -68 -262 -149q-72 -90 -72 -289z" />
<glyph unicode="r" horiz-adv-x="1474" d="M115 147q0 14 4 35t10 176q8 180 8 371v225q-2 152 -2 228v141q47 8 103 8q39 0 119.5 -6t121.5 -6q70 0 125 16l285 -41q168 -29 260 -108q43 -37 61 -68q29 -49 29 -180q0 -82 -10 -117q-2 -10 -27 -51q-96 -168 -233 -168q-8 -6 -27 -22q29 -94 113 -232 q102 -170 127 -225v-12q-20 4 -33 4q-12 0 -39 -2t-41 -2q-61 0 -86 45l-223 424l-29 22q-45 -4 -69 -4q-37 0 -111 4t-111 4q-80 0 -131 -12l-16 -27q2 -20 2 -63q0 -53 -8 -158.5t-8 -159.5q0 -25 4 -73l-19 -13q-20 6 -45 6q-20 0 -31 -2q-73 0 -73 43zM309 795l17 -15 q84 -25 243 -24q33 0 99 2h98h65q2 0 54 8q174 27 196 117q4 16 4 47q0 111 -69 155q-115 74 -504 82q-16 0 -70 2q-41 2 -67 2q-47 0 -62 -26z" />
<glyph unicode="s" horiz-adv-x="1544" d="M139 315l97 88q205 -205 489 -204q125 0 236 45q137 55 174 153q12 25 12 43q0 8 -10 47q-25 96 -93 117q-76 23 -192 31q-6 0 -195 4q-12 -1 -26 -1q-43 0 -109 5q-8 2 -59 21q-158 57 -230 157q-20 129 -20 158q0 88 43 139q16 18 59 56q179 152 351 151h18 q311 -14 479 -151q35 -2 64 -29q0 -2 2 -6v-6q0 -20 -35 -54q-18 -16 -45 -49q-6 -4 -19 -4q-12 0 -38 18q-8 8 -21 17l-18 12q-170 78 -369 78q-174 0 -283 -90q-51 -43 -51 -92q0 -18 8 -37q63 -150 338 -150q18 0 70 2h72q90 -2 141 -16q106 -31 143 -49 q193 -100 193 -326q0 -8 -2 -12q-16 -92 -88 -172t-164 -103q-260 -66 -346 -65q-150 0 -313 78.5t-263 195.5z" />
<glyph unicode="t" horiz-adv-x="1470" d="M141 1188v80q0 72 49 71h3q722 -21 722 -22h-4q84 0 260 4q16 -82 17 -90q0 -33 -19 -49h-383l-10 -17v-133q0 -461 -6 -543q0 -12 -8 -59q-4 -39 -4 -61q0 -35 6 -104.5t6 -104.5q0 -47 -65 -47q-12 0 -39 3t-41 3q-6 0 -27 -4q12 262 12 516q0 231 -8 366q0 49 -10 148 q-10 39 -66 39h-32q-23 -2 -33 -2q-12 0 -43 6t-84 6q-127 0 -193 -6z" />
<glyph unicode="u" horiz-adv-x="1476" d="M127 1264q25 20 68 20q25 0 77 -8q14 -117 21 -395q0 -66 6 -195q4 -25 10 -74l4 -127q8 -74 41 -116q55 -72 166 -113q96 -37 199 -37q150 0 219 39q29 16 57 49q66 74 82 213l13 232q4 72 4 102q0 55 -27 418q61 16 94 16q18 0 37 -6q23 -160 23 -397q0 -49 -2 -149.5 t-2 -151.5q0 -106 -2.5 -123t-16.5 -70q-47 -174 -158 -233q-143 -76 -391 -76q-156 0 -191.5 8t-97 40t-84.5 56q-14 12 -43 62q-102 176 -102 489q0 55 3 166t3 168q0 113 -10 193z" />
<glyph unicode="v" horiz-adv-x="1427" d="M33 1300q10 0 47 5q29 4 47 4q47 0 72 -31q14 -14 39 -72q35 -78 34 -80q76 -141 213 -430q8 -23 29 -67q12 -20 33 -62l47 -96q29 -53 68 -84q27 33 57 94l51 99q252 428 385 727q29 12 55 12q8 0 35 -2q20 -2 35 0v-35l-287 -573q-168 -340 -270 -584l-129 -4 q-55 86 -125 239q-84 186 -117 246q-66 119 -151 322l-58 129q-8 23 -30 65l-48 89q-26 46 -32 89z" />
<glyph unicode="w" horiz-adv-x="1728" d="M25 1284q25 12 61 12q20 0 61 -4q12 -18 95 -219q37 -88 215 -598q33 -33 41 -33q2 0 6 2q8 12 22 37q4 8 23 82l56 185l169 552h68q63 -139 137 -415q76 -291 131 -418l6 -6q8 -14 17 -15q2 0 4 3q78 164 168 421l147 430q-4 0 -4 1t70 2q35 0 57 -13q-16 -20 -23 -67 q-10 -61 -12 -70l-323 -1040q-27 -12 -68 -13h-78q-86 213 -133 387l-43 190q-29 126 -88 216q-18 -8 -22.5 -33.5t-10.5 -47t-22.5 -66t-51.5 -150.5l-139 -457q-25 -12 -63 -12q-37 0 -70 8q-51 162 -164 483z" />
<glyph unicode="x" horiz-adv-x="1593" d="M147 104v31q207 252 246 303q137 172 230 314l-7 43q-76 82 -194 249q-125 178 -191 252q12 -2 29.5 -2t38.5 2q66 6 63 7q74 0 91 -64q45 -43 131 -164q78 -111 139 -157h20q68 68 160 184q125 156 154 188q104 16 121 17q35 0 67 -13v-16q-63 -100 -190 -248 q-154 -182 -199 -244l8 -53q147 -205 459 -598l2 -24q-61 -6 -119 -7q-37 0 -55 2q-66 74 -197 252q-123 166 -200 248q-27 -4 -42.5 -28.5t-27.5 -47.5q-12 -14 -39 -43l-78 -86l-241 -278q-20 -6 -62 -6q-84 -1 -117 -13z" />
<glyph unicode="y" horiz-adv-x="1525" d="M145 1303l174 12q57 -63 367 -457l39 6q72 98 195 238q197 217 206 229q4 0 15 2h14q18 0 54 -4t55 -4q18 0 28 2q2 -6 2 -18q0 -31 -51 -82l-438 -547q4 -66 4 -102q0 -61 -8 -180t-8 -179q0 -10 2 -31v-32q-23 -23 -70 -23q-18 0 -47 4q-37 4 -47 4l-6 17 q-31 84 -31 217q0 72 10 187.5t10 146.5q-88 125 -229 299z" />
<glyph unicode="z" horiz-adv-x="1443" d="M139 123q0 35 39 82q25 25 58 76q111 117 243 297l226 309l131 172q23 25 61 76q2 2 2 10q0 29 -29 29l-720 6q-4 16 -5 49q0 53 21 100l1026 -6v-33l-721 -991q-4 -23 10 -33q63 1 125 1q279 0 537 -15v-117z" />
<glyph unicode="&#xa3;" horiz-adv-x="1665" d="M141 231q0 41 15 56l75 8q45 6 74 22q6 41 6 84q0 31 -4 91.5t-4 89.5q0 8 2 20v21q-25 18 -57 18h-27q-18 -2 -28 -2h-21q-12 27 -12 68q0 8 2 41q2 25 0 38q18 12 84 13q57 -2 71 30q-4 53 -4 80q0 217 152 322q121 82 287 82q137 0 213 -27q45 -16 107.5 -68.5 t86.5 -93.5q47 -82 47 -123q0 -23 -8 -40q-20 -12 -49 -13q-14 0 -42 4t-42 4h-10q-8 -2 -13 -2q-8 10 -43 105q-23 61 -73 84q-104 47 -172 47q-82 0 -170 -78t-88 -158v-39q-2 -27 -2 -41q0 -41 18 -61q55 -14 143 -14q123 0 164 -6v-123q-55 -12 -155 -13q-113 2 -158 -4 q-27 -25 -29 -82q-2 -78 -6 -92q8 -49 14 -98q10 -61 39 -88l615 12q12 -25 12 -67q0 -27 -4 -72q-322 -27 -739 -27h-258q-9 61 -9 92z" />
<glyph unicode="&#xad;" d="M125 649q0 37 14 66q303 2 908 -19q2 18 2 -55q0 -33 -13 -49q-45 -12 -94 -12q-27 0 -79 3t-77 3q4 0 -81 -6l-93 -2q-188 -4 -190 -5q-121 0 -289 15q-8 41 -8 61z" />
<glyph unicode="&#xb4;" horiz-adv-x="1042" d="M492 1554q0 8 24 29l15 15q11 11 14 16q49 94 96 121l170 -4v-23q-14 -10 -109 -115q-63 -72 -131 -71q-39 0 -69 14q-10 10 -10 18z" />
<glyph unicode="&#x2000;" horiz-adv-x="866" />
<glyph unicode="&#x2001;" horiz-adv-x="1734" />
<glyph unicode="&#x2002;" horiz-adv-x="866" />
<glyph unicode="&#x2003;" horiz-adv-x="1734" />
<glyph unicode="&#x2004;" horiz-adv-x="577" />
<glyph unicode="&#x2005;" horiz-adv-x="432" />
<glyph unicode="&#x2006;" horiz-adv-x="288" />
<glyph unicode="&#x2007;" horiz-adv-x="288" />
<glyph unicode="&#x2008;" horiz-adv-x="215" />
<glyph unicode="&#x2009;" horiz-adv-x="346" />
<glyph unicode="&#x200a;" horiz-adv-x="96" />
<glyph unicode="&#x2010;" d="M125 649q0 37 14 66q303 2 908 -19q2 18 2 -55q0 -33 -13 -49q-45 -12 -94 -12q-27 0 -79 3t-77 3q4 0 -81 -6l-93 -2q-188 -4 -190 -5q-121 0 -289 15q-8 41 -8 61z" />
<glyph unicode="&#x2011;" d="M125 649q0 37 14 66q303 2 908 -19q2 18 2 -55q0 -33 -13 -49q-45 -12 -94 -12q-27 0 -79 3t-77 3q4 0 -81 -6l-93 -2q-188 -4 -190 -5q-121 0 -289 15q-8 41 -8 61z" />
<glyph unicode="&#x2012;" d="M125 649q0 37 14 66q303 2 908 -19q2 18 2 -55q0 -33 -13 -49q-45 -12 -94 -12q-27 0 -79 3t-77 3q4 0 -81 -6l-93 -2q-188 -4 -190 -5q-121 0 -289 15q-8 41 -8 61z" />
<glyph unicode="&#x2013;" horiz-adv-x="1638" d="M145 649q0 37 15 66q147 -6 293 -6h135q573 0 766 -13q2 18 2 -55q0 -33 -13 -49q-45 -12 -94 -12q-27 0 -79 3t-76 3q-25 0 -74 -4t-74 -4q-59 0 -179 -2.5t-181 -2.5q-229 0 -432 15q-9 41 -9 61z" />
<glyph unicode="&#x2014;" horiz-adv-x="2048" />
<glyph unicode="&#x2018;" horiz-adv-x="815" d="M160 1722l6 13h194q127 -117 148 -195q-53 -4 -162 -10z" />
<glyph unicode="&#x2026;" horiz-adv-x="2048" />
<glyph unicode="&#x202f;" horiz-adv-x="346" />
<glyph unicode="&#x205f;" horiz-adv-x="432" />
<glyph unicode="&#x2122;" horiz-adv-x="3088" d="M1613 469q0 100 6.5 304t6.5 306q0 147 -6 224q25 0 71 2h70q27 0 41 -26t23.5 -47.5t37.5 -68.5q53 -88 168 -309q106 -199 174 -305q37 10 86 98q25 45 191 316q119 193 174 327q20 23 55 23q14 0 42 -5t42 -5h16q12 -84 13 -211q0 -133 -5.5 -398.5t-5.5 -398.5 q0 -31 3 -92v-92q-20 -10 -52 -11q-37 0 -92 19l-6 20q-4 8 -6 17q0 20 2 61v62q0 74 -4 220t-4 218q0 98 6 192q-4 16 -19 17h-8q-51 -96 -168 -281q-10 -12 -28 -39l-19 -43q-25 -53 -102 -178q-70 -111 -98 -180q-33 39 -64 106l-49 115q-123 246 -254 428q-29 8 -53 37 q-4 -20 -4 -31q0 -18 6 -54t6 -54q0 2 -19 -625q-31 -16 -69 -16q-29 0 -86 8q-19 149 -19 350zM141 1188v80q0 72 49 71h3q722 -21 722 -22h-4q84 0 260 4q16 -82 17 -90q0 -33 -19 -49h-383l-10 -17v-133q0 -461 -6 -543q0 -12 -8 -59q-4 -39 -4 -61q0 -35 6 -104.5 t6 -104.5q0 -47 -65 -47q-12 0 -39 3t-41 3q-6 0 -27 -4q12 262 12 516q0 231 -8 366q0 49 -10 148q-10 39 -66 39h-32q-23 -2 -33 -2q-12 0 -43 6t-84 6q-127 0 -193 -6z" />
<glyph unicode="&#xe000;" horiz-adv-x="1305" d="M0 1305h1305v-1305h-1305v1305z" />
<glyph unicode="&#xfb01;" horiz-adv-x="1925" d="M1507 131q10 162 10 387q0 94 -4 279.5t-4 277.5q0 143 31 230q18 -12 57 -13q49 -2 66 -6q4 -307 4 -459v-247q0 -152 -4 -455q-20 -16 -41 -16q-14 0 -42 7t-40 7q-16 0 -23 -4zM133 176q0 -10 8 250q10 326 11 528q0 166 -7 332q23 11 63 11h7q45 -1 64 6 q389 -16 585 -17q125 0 250 6q12 -25 12 -61v-33q-2 -23 -2 -35l-790 -4q-18 0 -31.5 -17.5t-13.5 -35.5v-141q0 -113 26 -140l496 -6q8 -31 8 -67v-78q-68 -8 -153 -8q-37 0 -112 2t-114 2q-63 0 -129 -6l-14 -21v-512q-23 -16 -55 -16q-14 0 -44 5t-46 5h-7q-12 43 -12 51 z" />
<glyph unicode="&#xfb02;" horiz-adv-x="2678" d="M1534 500q0 92 3 276.5t3 276.5q0 131 -6 262q45 16 84 16q20 0 39 -6l10 -16l18 -1018q25 -27 92 -27h660q16 -16 16 -37q0 -12 -2 -20q-12 -45 -12 -53q0 -10 4 -23l-12 -12q-39 -2 -121 -2q-102 0 -310 8t-313 8q-47 0 -141 -4q-12 150 -12 371zM133 176q0 -10 8 250 q10 326 11 528q0 166 -7 332q23 11 63 11h7q45 -1 64 6q389 -16 585 -17q125 0 250 6q12 -25 12 -61v-33q-2 -23 -2 -35l-790 -4q-18 0 -31.5 -17.5t-13.5 -35.5v-141q0 -113 26 -140l496 -6q8 -31 8 -67v-78q-68 -8 -153 -8q-37 0 -112 2t-114 2q-63 0 -129 -6l-14 -21 v-512q-23 -16 -55 -16q-14 0 -44 5t-46 5h-7q-12 43 -12 51z" />
<glyph unicode="&#xfb03;" horiz-adv-x="3303" d="M2886 131q10 162 10 387q0 94 -4 279.5t-4 277.5q0 143 31 230q18 -12 57 -13q49 -2 66 -6q4 -307 4 -459v-247q0 -152 -4 -455q-20 -16 -41 -16q-14 0 -42 7t-40 7q-16 0 -23 -4zM1511 176q0 -10 8 250q10 326 11 528q0 166 -7 332q23 11 63 11h7q45 -1 64 6 q389 -16 585 -17q125 0 250 6q12 -25 12 -61v-33q-2 -23 -2 -35l-790 -4q-18 0 -31.5 -17.5t-13.5 -35.5v-141q0 -113 26 -140l496 -6q8 -31 8 -67v-78q-68 -8 -153 -8q-37 0 -112 2t-114 2q-63 0 -129 -6l-14 -21v-512q-23 -16 -55 -16q-14 0 -44 5t-46 5h-7q-12 43 -12 51 zM133 176q0 -10 8 250q10 326 11 528q0 166 -7 332q23 11 63 11h7q45 -1 64 6q389 -16 585 -17q125 0 250 6q12 -25 12 -61v-33q-2 -23 -2 -35l-790 -4q-18 0 -31.5 -17.5t-13.5 -35.5v-141q0 -113 26 -140l496 -6q8 -31 8 -67v-78q-68 -8 -153 -8q-37 0 -112 2t-114 2 q-63 0 -129 -6l-14 -21v-512q-23 -16 -55 -16q-14 0 -44 5t-46 5h-7q-12 43 -12 51z" />
<glyph unicode="&#xfb04;" horiz-adv-x="4057" d="M2913 500q0 92 3 276.5t3 276.5q0 131 -6 262q45 16 84 16q20 0 39 -6l10 -16l18 -1018q25 -27 92 -27h660q16 -16 16 -37q0 -12 -2 -20q-12 -45 -12 -53q0 -10 4 -23l-12 -12q-39 -2 -121 -2q-102 0 -310 8t-313 8q-47 0 -141 -4q-12 150 -12 371zM1511 176q0 -10 8 250 q10 326 11 528q0 166 -7 332q23 11 63 11h7q45 -1 64 6q389 -16 585 -17q125 0 250 6q12 -25 12 -61v-33q-2 -23 -2 -35l-790 -4q-18 0 -31.5 -17.5t-13.5 -35.5v-141q0 -113 26 -140l496 -6q8 -31 8 -67v-78q-68 -8 -153 -8q-37 0 -112 2t-114 2q-63 0 -129 -6l-14 -21 v-512q-23 -16 -55 -16q-14 0 -44 5t-46 5h-7q-12 43 -12 51zM133 176q0 -10 8 250q10 326 11 528q0 166 -7 332q23 11 63 11h7q45 -1 64 6q389 -16 585 -17q125 0 250 6q12 -25 12 -61v-33q-2 -23 -2 -35l-790 -4q-18 0 -31.5 -17.5t-13.5 -35.5v-141q0 -113 26 -140l496 -6 q8 -31 8 -67v-78q-68 -8 -153 -8q-37 0 -112 2t-114 2q-63 0 -129 -6l-14 -21v-512q-23 -16 -55 -16q-14 0 -44 5t-46 5h-7q-12 43 -12 51z" />
</font>
</defs>
</svg>
